<?xml version="1.0" encoding="utf-8"?>
<!-- Generator: Adobe Illustrator 27.3.1, SVG Export Plug-In . SVG Version: 6.00 Build 0)  -->
<svg version="1.1" id="Ebene_1" xmlns="http://www.w3.org/2000/svg" xmlns:xlink="http://www.w3.org/1999/xlink" x="0px" y="0px"
	 viewBox="0 0 389.9794922 203.9897919" style="enable-background:new 0 0 389.9794922 203.9897919;" xml:space="preserve">
<style type="text/css">
	.st0{fill:#D6352B;}
</style>
<g>
	<g>
		<path d="M182.8642883,159.4975891c-0.5624847-0.8930969-1.3564911-1.4721985-2.5307922-1.4721985
			c-1.3392944,0-2.3486023,1.0752106-2.3486023,2.3818054c0,1.3066864,1.2407074,1.8526001,2.2494965,2.3320923l2.3818054,1.2407074
			c0.9429016,0.5951996,1.4223938,1.3563995,1.4223938,2.4808807c0,2.0674133-1.8851929,3.6226196-3.9032898,3.6226196
			c-1.7368011,0-3.0933075-1.0751953-3.6719055-2.6797028l0.6943054-0.3143921
			c0.5292969,1.3231964,1.5054016,2.2494812,3.0108032,2.2494812c1.6371918,0,3.0761871-1.2900848,3.0761871-2.9438934
			c0-1.406189-1.4389954-2.0013885-2.5141907-2.5307007l-2.2494965-1.1909943
			c-0.8267059-0.5126038-1.2900085-1.2406921-1.2900085-2.2328949c0-1.8525238,1.3231964-3.1591034,3.1923065-3.1591034
			c1.2574005,0,2.4477997,0.6777039,3.0435028,1.7528992L182.8642883,159.4975891z"/>
		<path d="M201.3466949,169.9179993h-0.7948914v-11.7271118h-3.2246094v-0.7445984h7.2440948v0.7445984h-3.2245941V169.9179993z"/>
		<path d="M219.2841949,169.9179993h-0.7949066v-12.4717102h0.7949066V169.9179993z"/>
		<path d="M235.2372894,158.1908875v4.5318146h4.1202087v0.7445984h-4.1202087v6.4506989h-0.7919922v-12.4717102h5.0263977
			v0.7445984H235.2372894z"/>
		<path d="M257.0458984,169.9179993h-0.7948914v-11.7271118h-3.2246094v-0.7445984h7.2441101v0.7445984h-3.2246094V169.9179993z"/>
		<path d="M281.7471008,157.4462891h0.7948914v7.7744141c0,1.2733917,0,2.3651733-0.8427124,3.4071808
			c-0.8447876,0.9589996-2.1328735,1.4556122-3.3916016,1.4556122c-1.2578735,0-2.5458679-0.4966125-3.390686-1.4556122
			c-0.8427124-1.0420074-0.8427124-2.1337891-0.8427124-3.4071808v-7.7744141h0.7919006v7.542511
			c0,1.125,0,2.3159027,0.6465149,3.1429901c0.6113892,0.7940063,1.8368835,1.2070923,2.7949829,1.2070923
			c0.9589233,0,2.1835022-0.4130859,2.795929-1.2070923c0.6434937-0.8270874,0.6434937-2.0179901,0.6434937-3.1429901V157.4462891z"
			/>
		<path d="M308.8466797,170.3315887l-10.4706726-11.131897v10.7183075h-0.7930298v-12.6367035l10.468811,11.0487976v-10.8838043
			h0.7948914V170.3315887z"/>
		<path d="M335.6962891,163.9135895c0.0332031,1.5718079-0.1991882,2.9442902-1.305603,4.1518097
			c-1.1914062,1.2901001-2.9776001,2.0180969-4.7315063,2.0180969c-3.4559937,0-6.4003906-2.9111023-6.4003906-6.3516083
			c0-3.5726929,2.9277954-6.450592,6.5-6.450592c2.2655945,0,4.101593,1.1244965,5.4082031,2.9111023l-0.6445007,0.5126953
			c-1.1094055-1.6542969-2.7939148-2.6797028-4.8145142-2.6797028c-3.0419006,0-5.656189,2.6631012-5.656189,5.6567078
			c0,3.0766907,2.5477905,5.6567841,5.656189,5.6567841c1.3399048,0,2.6465149-0.5458832,3.6719055-1.3725891
			c1.0762024-0.9096985,1.4736938-1.9515991,1.5234985-3.3080902h-4.4667969v-0.7446136H335.6962891z"/>
	</g>
	<g>
		<path d="M59.875,135.0820007H48.2441978v-23.1972046h-4.0898972v-9.585495h4.0898972v-4.153801
			c0-4.5371017,0.1278992-7.8598022,3.3232002-11.5024033c2.8754997-3.3872147,7.0293007-5.2402954,11.4384995-5.2402954
			c1.7894974,0,3.3871994,0.319397,4.9849014,1.1503983v10.0326843c-1.3423004-0.5750885-2.5561981-1.0863876-4.089901-1.0863876
			c-3.0033989,0-4.025898,1.7896042-4.025898,5.4955978v5.3042068h8.115799v9.585495H59.875V135.0820007z"/>
		<path d="M96.1093979,102.2993011v17.5097961c0,4.1537857,1.0224991,7.0932999,5.8154068,7.0932999
			c4.7924957,0,5.8149948-2.9395142,5.8149948-7.0932999v-17.5097961h11.6307983v19.746582
			c0,10.7993164-7.6049042,14.1226196-17.4457932,14.1226196c-9.8413086,0-17.4458084-3.3233032-17.4458084-14.1226196v-19.746582
			H96.1093979z"/>
		<path d="M152.2836914,135.0820007h-11.6307983v-23.1972046h-3.7700958v-9.585495h3.7700958v-9.841301h11.6307983v9.841301
			h6.5821075v9.585495h-6.5821075V135.0820007z"/>
		<path d="M186.7924957,102.2993011v17.5097961c0,4.1537857,1.0225067,7.0932999,5.8153992,7.0932999
			c4.7915039,0,5.8159943-2.9395142,5.8159943-7.0932999v-17.5097961h11.6298065v19.746582
			c0,10.7993164-7.6044006,14.1226196-17.4458008,14.1226196c-9.8412933,0-17.4458008-3.3233032-17.4458008-14.1226196v-19.746582
			H186.7924957z"/>
		<path d="M241.8798981,107.6674957h0.1278992c2.2353973-4.0259018,6.0704041-5.8153992,10.6074982-5.8153992h2.2382965v11.1830978
			c-1.5986938-0.8945999-3.1337891-1.0864944-4.9228973-1.0864944c-6.4521027,0-8.0507965,4.2817993-8.0507965,9.9052963v13.2280045
			h-11.6307983v-32.7826996h11.6307983V107.6674957z"/>
		<path d="M283.6113892,135.0820007h-11.631897v-32.7826996h11.631897V135.0820007z"/>
	</g>
	<path class="st0" d="M277.7510071,90.5278015c9.4941711,0,17.1903992-7.6958008,17.1903992-17.1899185
		c0-9.4940834-7.696228-17.1898842-17.1903992-17.1898842c-9.4931946,0-17.1914062,7.6958008-17.1914062,17.1898842
		C260.5596008,82.8320007,268.2578125,90.5278015,277.7510071,90.5278015L277.7510071,90.5278015z"/>
	<path class="st0" d="M309.2041016,64.8676987c6.6454773,0,12.0332031-5.3866997,12.0332031-12.0326996
		s-5.3877258-12.0331993-12.0332031-12.0331993c-6.6464233,0-12.0332031,5.3871994-12.0332031,12.0331993
		S302.5576782,64.8676987,309.2041016,64.8676987L309.2041016,64.8676987z"/>
	<path class="st0" d="M335.8681946,52.016098c4.6063843,0,8.3397827-3.7343979,8.3397827-8.3392982
		c0-4.605999-3.7333984-8.3389168-8.3397827-8.3389168c-4.6054993,0-8.3398132,3.7329178-8.3398132,8.3389168
		C327.5283813,48.2817001,331.2626953,52.016098,335.8681946,52.016098L335.8681946,52.016098z"/>
</g>
</svg>
