<svg xmlns="http://www.w3.org/2000/svg" width="198" height="65.333" viewBox="0 0 198 65.333"><path fill="#ABCB57" d="M66.978 47.636c-.63 0-1.268-.424-1.268-1.234v-2.422c-1.575 2.303-3.679 3.616-5.812 3.616-3.191 0-4.619-3.426-4.619-6.822 0-5.704 3.324-9.536 8.272-9.536 1.253 0 2.567.05 3.684.41.645.198.973.612.973 1.229 0 .762-.501 1.315-1.192 1.315-.115 0-.206 0-.335-.046-.987-.188-1.986-.277-3.13-.277-3.485 0-5.737 2.71-5.737 6.906 0 1.557.463 4.192 2.197 4.192.652 0 1.321-.284 2.045-.868 3.033-2.372 3.654-5.117 3.654-8.508 0-.73.657-1.113 1.305-1.113.611 0 1.229.396 1.229 1.153v10.772c.001.726-.52 1.233-1.266 1.233zM84.224 47.636c-.734 0-1.268-.57-1.268-1.355v-8.99c0-1.376-.575-3.423-2.159-3.423-.757 0-1.1.043-1.709.506-3.612 2.683-3.915 7.574-3.915 11.948 0 .762-.518 1.315-1.23 1.315-.744 0-1.305-.583-1.305-1.355v-13.729c0-.774.521-1.315 1.268-1.315s1.268.541 1.268 1.315v2.486c.996-1.543 2.916-3.802 5.624-3.802 2.352 0 3.875 1.407 4.417 4.074.838-1.375 2.831-4.034 5.713-4.034 3.082 0 4.694 3.045 4.694 6.053v8.95c0 .739-.533 1.275-1.268 1.275-.758 0-1.267-.512-1.267-1.275v-8.95c0-1.376-.575-3.423-2.16-3.423-.744 0-1.06.042-1.672.506-3.774 2.86-3.77 6.82-3.765 11.405v.502c.001.775-.52 1.316-1.266 1.316zM101.244 47.596c-.734 0-1.267-.57-1.267-1.355v-13.688c0-.75.544-1.315 1.267-1.315.746 0 1.267.541 1.267 1.315v13.687c-.001.785-.533 1.356-1.267 1.356zm.075-21.868c-1.011 0-1.832-.862-1.832-1.922 0-1.038.821-1.882 1.832-1.882 1.006 0 1.794.827 1.794 1.882 0 1.041-.821 1.922-1.794 1.922zM108.361 47.636c-.746 0-1.268-.574-1.268-1.396v-26.12c0-.774.521-1.315 1.268-1.315.723 0 1.267.565 1.267 1.315v26.12c0 .822-.521 1.396-1.267 1.396zM119.996 59.421c-.582 0-2.1-.209-3.509-.658-1.193-.38-2.616-1.035-2.616-1.994 0-.773.755-1.396 1.381-1.396.197 0 .367.042.537.134 1.083.548 2.694 1.203 4.207 1.203 2.628 0 3.583-.815 3.932-3.356.197-1.496.225-2.961.225-4.198l.105-5.56c-1.121 1.919-2.969 4.04-5.654 4.04-1.455 0-2.673-.69-3.521-1.995-.722-1.111-1.136-2.649-1.136-4.22v-8.828c0-.773.528-1.356 1.229-1.356.734 0 1.268.57 1.268 1.356v8.828c0 1.226.452 3.544 2.16 3.544.77 0 1.302-.176 1.897-.627 3.651-2.985 3.651-7.639 3.651-11.745 0-.798.521-1.356 1.267-1.356s1.268.574 1.268 1.396v16.928c-.001 5.395-.504 9.86-6.691 9.86zM139.126 39.253h-8.699c-.69 0-1.191-.519-1.191-1.234 0-.798.536-1.355 1.305-1.355h8.699c.746 0 1.267.507 1.267 1.234-.001.772-.594 1.355-1.381 1.355zM155.468 47.677c-.698 0-1.267-.663-1.267-1.477v-8.747c0-1.226-.452-3.544-2.16-3.544-.68 0-1.189.198-1.82.706-3.476 2.763-3.767 7.45-3.767 11.626 0 .785-.532 1.355-1.267 1.355s-1.268-.57-1.268-1.355v-26.121c0-.785.533-1.355 1.268-1.355s1.267.57 1.267 1.355v15.219c.993-1.666 2.904-4.102 5.587-4.102 1.472 0 2.7.69 3.554 1.995.725 1.109 1.141 2.648 1.141 4.221 0 2.867 0 5.832-.038 8.789 0 .704-.46 1.435-1.23 1.435zM166.464 47.596c-4.22 0-6.427-3.88-6.427-7.713 0-4.269 2.699-8.685 7.218-8.685 2.371 0 3.902 1.534 3.902 3.907 0 3.762-3.492 5.445-6.953 5.445-.758 0-1.267-.545-1.267-1.355 0-.727.528-1.274 1.229-1.274 1.046 0 4.458-.203 4.458-2.815 0-.895-.41-1.277-1.369-1.277-2.271 0-4.684 2.122-4.684 6.055 0 2.53 1.204 5.083 3.893 5.083 1.306 0 2.282-.391 3.168-1.267.265-.285.517-.555.975-.555.636 0 1.153.59 1.153 1.315 0 .375-.147.726-.44 1.04-1.003 1.329-2.775 2.096-4.856 2.096zM176.479 47.636c-.746 0-1.267-.574-1.267-1.396v-26.12c0-.774.521-1.315 1.267-1.315.723 0 1.268.565 1.268 1.315v26.12c0 .822-.522 1.396-1.268 1.396zM183.296 59.38c-.734 0-1.268-.57-1.268-1.355v-25.472c0-.762.549-1.315 1.305-1.315.723 0 1.268.565 1.268 1.315v2.565c1.581-2.471 3.686-3.88 5.812-3.88 3.199 0 4.656 3.705 4.656 7.147 0 3.483-1.447 6.34-4.185 8.262-1.067.712-1.991.99-3.296.99l-.311.004-.376.005c-.591 0-1.975 0-1.975-1.365 0-.835.539-1.396 1.343-1.396.207 0 .417.02.64.04.223.021.452.042.679.042.789 0 1.34-.159 1.901-.549 2.021-1.344 3.045-3.373 3.045-6.033 0-1.041-.153-4.436-2.122-4.436-.792 0-1.56.251-2.161.708-2.481 2.01-3.689 5.468-3.689 10.571v12.797c0 .785-.532 1.355-1.266 1.355zM45.567 33.741c.341.191.786.217 1.175.217l.345-.005.209-.004v14.39h2.535v-14.39h3.402c.734 0 1.268-.57 1.268-1.355 0-.786-.533-1.356-1.268-1.356h-3.403v-5.448c0-2.781.142-4.354 3.063-4.354.347 0 .705.081 1.051.159.357.081.727.165 1.095.165.699 0 1.268-.645 1.268-1.437 0-.604-.313-1.03-.933-1.269-.36-.129-2.117-.33-2.481-.33-2.182 0-3.663.622-4.526 1.902-.741 1.098-1.072 2.69-1.072 5.164v5.447l-.208-.004-.345-.005c-.566 0-1.744 0-1.744 1.365 0 .55.192.936.569 1.148z"/><g fill="#009CDF"><path d="M49.988 59.74l1.838-3.977h1.375l-3.214 6.591-3.2-6.591h1.375l1.826 3.977zM55.149 59.154c.013 1.089.749 2.111 1.92 2.111.94 0 1.443-.477 1.906-1.239l1.035.586c-.599 1.103-1.716 1.743-2.955 1.743-1.947 0-3.132-1.47-3.132-3.35 0-1.961 1.049-3.431 3.105-3.431 2.029 0 2.982 1.498 2.982 3.391v.191h-4.861v-.002zm3.635-.926c-.149-.953-.776-1.594-1.756-1.594-.953 0-1.661.681-1.811 1.594h3.567zM62.91 56.798h.041c.299-.749.926-1.225 1.743-1.225.354 0 .708.122 1.008.313l-.559 1.117c-.218-.19-.463-.258-.749-.258-1.321 0-1.484 1.225-1.484 2.26v3.132h-1.226v-6.373h1.226v1.034zM67.662 59.154c.014 1.089.749 2.111 1.921 2.111.94 0 1.443-.477 1.906-1.239l1.035.586c-.599 1.103-1.716 1.743-2.955 1.743-1.947 0-3.132-1.47-3.132-3.35 0-1.961 1.049-3.431 3.105-3.431 2.029 0 2.982 1.498 2.982 3.391v.191h-4.862v-.002zm3.636-.926c-.15-.953-.776-1.594-1.756-1.594-.953 0-1.662.681-1.811 1.594h3.567zM75.846 52.849c0 .463-.381.831-.844.831-.463 0-.844-.368-.844-.831 0-.477.381-.858.844-.858.463 0 .844.381.844.858zm-.231 9.287h-1.225v-6.373h1.225v6.373zM79.346 56.621h.027c.382-.681 1.144-1.049 1.92-1.049 1.798 0 2.261 1.212 2.261 2.764v3.799h-1.225v-3.649c0-1.089-.15-1.825-1.402-1.825-1.58 0-1.58 1.389-1.58 2.547v2.928h-1.227v-6.373h1.225l.001.858z"/></g><g fill="#009CDF"><path d="M48.856 7.621c-.992-1.899-2.715-3.456-4.851-4.385-1.317-.573-2.742-.876-4.12-.876-3.214 0-5.9 1.584-7.01 4.134-.812 1.867-.688 3.991.352 5.979.992 1.898 2.715 3.456 4.851 4.385l.12.045c-.708 3.896-1.284 7.126-1.793 9.976-1.941 10.882-2.923 16.384-6.724 33.501h-2.198l5.832-30.334.004-.162.019-.106-.015-.066c-.008-.105-.035-.204-.068-.303l-.047-.144-.012-.038-11.072-21.253c-.21-.404-.623-.663-1.078-.677-.447-.01-.883.218-1.118.608l-11.185 18.528c-.074.122-.121.257-.15.395l-.01.024.001.083-.02.242c.868 11.811 2.165 30.979 2.028 33.148l-.007.056h-1.643c-.312 0-.489.243-.393.54l.403 1.254c.095.297.429.54.74.541l24.783.064c.312.001.635-.244.719-.545l.363-1.308c.083-.3-.103-.546-.415-.546h-2.879c3.712-16.738 4.698-22.259 6.624-33.058.497-2.789 1.06-5.942 1.748-9.728.522.084 1.046.14 1.563.14 3.214 0 5.9-1.584 7.01-4.135.812-1.867.687-3.99-.352-5.979zm-27.931 3.507l9.059 17.389c-5.631-.25-14.396-1.697-18.137-2.351l9.078-15.038zm-.609 49.253h-2.394l.012-7.098.09.015c.69.014 1.258-.367 1.267-.85s-.542-.886-1.232-.9l-.122.015.008-4.693 3.692-.074-1.321 13.585zm2.532 0l1.433-14.752c.035-.358-.085-.714-.33-.978s-.605-.419-.95-.404l-6.341.127c-.685.014-1.233.572-1.234 1.258l-.024 14.748h-2.339c.152-1.956-.141-6.395-.813-16.578-.409-6.184-.849-12.352-1.055-15.189 3.807.674 13.42 2.282 19.358 2.447l-5.637 29.321h-2.068zm24.049-47.786c-.703 1.616-2.504 2.62-4.699 2.62-1.035 0-2.112-.23-3.114-.667-1.61-.701-2.896-1.852-3.623-3.242-.679-1.3-.777-2.652-.274-3.806.703-1.616 2.504-2.62 4.699-2.62 1.035 0 2.112.23 3.115.667 1.609.7 2.896 1.851 3.623 3.241.678 1.3.776 2.652.273 3.807zM24.931 34.151c-.21-.277-.525-.454-.871-.49l-6.568-.691c-.699-.075-1.312.429-1.385 1.121l-.691 6.567c-.039.365.084.729.336.996.238.253.57.396.917.396l.059-.001 6.329-.293c.593-.028 1.086-.466 1.184-1.052l.931-5.583c.056-.343-.031-.694-.241-.97zm-3.009 5.134l-.057.003c-.035-.153-.101-.298-.203-.423-.195-.237-.487-.378-.797-.386l-.152-.004c.294-.163.514-.436.575-.859.096-.666-.293-1.264-.869-1.337-.575-.073-1.132.407-1.215 1.074-.062.491.182.876.458 1.094l-.453-.012c-.423-.005-.887.354-1.106.764l.378-3.591 3.984.419-.543 3.258z"/></g></svg>
