<?xml version="1.0" encoding="utf-8"?>
<!-- Generator: Adobe Illustrator 27.3.1, SVG Export Plug-In . SVG Version: 6.00 Build 0)  -->
<svg version="1.1" id="Ebene_1" xmlns="http://www.w3.org/2000/svg" xmlns:xlink="http://www.w3.org/1999/xlink" x="0px" y="0px"
	 viewBox="0 0 639.6221313 228.8027954" style="enable-background:new 0 0 639.6221313 228.8027954;" xml:space="preserve">
<g>
	<path d="M128.5488281,53.4501991c0-13.0458984-7.5039062-22.6942997-20.3672028-22.6942997
		c-11.0800018,0-18.5839005,6.7920017-21.982399,18.2236004c0.1796951,1.2538986,0.1796951,2.5038986,0.1796951,3.5761986
		v54.4961052H71.0137253V53.4501991c0-13.0458984-7.6856003-22.6942997-20.5489006-22.6942997
		c-10.3652,0-18.2285271,6.2539005-21.8007259,16.799799v59.4961052H13.2968998V17.7099991h15.3671989v9.830101
		c6.6152248-8.2198009,16.2578259-11.2579002,25.1992245-11.2579002c11.7870979,0,21.4375038,5.3603992,26.9764977,14.6553001
		c8.4004059-11.6172009,20.7266006-14.6553001,29.8399048-14.6553001c20.3729935,0,33.2363052,14.1172009,33.2363052,36.2734985
		v54.4961052h-15.3672028V53.4501991z"/>
	<path d="M237.5606232,98.1201019c-7.5079041,6.7881012-17.5157013,10.364296-28.4122009,10.364296
		c-26.2675018,0-45.566391-20.1933975-45.566391-46.0995979c0-25.9121017,19.2988892-46.1026001,45.566391-46.1026001
		c10.8964996,0,20.9042969,3.5723,28.4122009,10.3642998v-8.9365005h15.363205v89.3418045h-15.363205V98.1201019z
		 M237.5606232,79.5371017V45.2294998c-5.1855927-8.3974991-15.1894989-14.4736004-28.0567017-14.4736004
		c-17.5097961,0-30.0155945,13.9365025-30.0155945,31.6289005c0,17.6864967,12.5057983,31.6260033,30.0155945,31.6260033
		C222.3711243,94.0108032,232.3750305,87.9346008,237.5606232,79.5371017z"/>
	<path d="M280.4512329,17.7099991h15.3671875v8.9365005c7.3242188-6.7919998,17.3300171-10.3642998,28.4121094-10.3642998
		c26.2616882,0,45.5625,20.1904984,45.5625,46.1026001c0,25.9062004-19.3008118,46.0995979-45.5625,46.0995979
		c-11.0820923,0-21.0878906-3.5761948-28.4121094-10.364296v41.8105927h-15.3671875V17.7099991z M295.8184204,45.2294998v34.3076019
		c5.0039062,8.3974991,15.1855164,14.4737015,28.0527039,14.4737015c17.5116882,0,30.0195007-13.9395065,30.0195007-31.6260033
		c0-17.6923981-12.5078125-31.6289005-30.0195007-31.6289005C311.0039368,30.7558994,300.8223267,36.8320007,295.8184204,45.2294998
		z"/>
	<path d="M564.4082031,16.2821999H633.6875v15.3164997h-53.4393921v37.4237976h41.7714233v15.3173981h-41.7714233v55.5224075
		h-15.8399048V16.2821999z"/>
	<g>
		<path d="M18.044899,186.4716949c-0.3436737-0.0429993-1.0058002-0.0644989-1.9862995-0.0644989h-0.859375v-14.3300018
			c0.4570751,0.0283051,0.9628754,0.0429077,1.5136757,0.0429077c0.5527,0,0.9413986-0.0283051,1.1718998-0.085907
			l3.6092987,6.1338043l3.4688015-6.1338043c0.2304993,0.0576019,0.6659985,0.085907,1.3104992,0.085907
			c0.6445999,0,1.1973-0.0146027,1.6543007-0.0429077v14.3300018h-0.8593006c-0.9804993,0-1.642601,0.0214996-1.9864006,0.0644989
			v-9.625l-3.5135994,6.2842102l-3.5235004-5.7793121V186.4716949z"/>
		<path d="M30.5917988,180.8535004c0-0.7881012,0.1348-1.5420074,0.4043007-2.2606964
			c0.2675991-0.7207031,0.6522999-1.3486023,1.1542988-1.8858032c1.0956993-1.1600952,2.517601-1.7402039,4.2637253-1.7402039
			c1.7402,0,3.1230011,0.5478973,4.1464996,1.6436005c0.9824028,1.0458984,1.4726028,2.402298,1.4726028,4.0713043
			c0,1.6688995-0.5059013,3.050705-1.5156021,4.1463928c-1.0663986,1.160202-2.4804993,1.7403107-4.2421989,1.7403107
			c-1.8203239,0-3.2441254-0.5694122-4.275425-1.7080078C31.0605984,183.8222961,30.5917988,182.4862976,30.5917988,180.8535004z
			 M33.2030983,180.789093c0,0.4512024,0.0741997,0.8877106,0.2246017,1.3105011
			c0.1503983,0.4229126,0.3652992,0.7842102,0.6445999,1.0850067c0.5956993,0.6513977,1.3750229,0.9774933,2.3418236,0.9774933
			c0.8964996,0,1.6015015-0.3182983,2.1171989-0.9559937c0.5-0.6161957,0.7519035-1.4179993,0.7519035-2.4062958
			c0-1.0028992-0.2578011-1.8115082-0.7734032-2.4277039c-0.5527992-0.6591949-1.3066978-0.9882965-2.2675972-0.9882965
			c-0.972702,0-1.7363281,0.3506012-2.2871246,1.0526886C33.4530983,179.0811005,33.2030983,179.8652954,33.2030983,180.789093z"/>
		<path d="M47.0918236,185.032196c0,0.6298981,0.0293007,1.0888977,0.0858994,1.375h-2.6952972v-11.2254944h2.6093979v0.9559937
			c0.9453011-0.7802887,1.955101-1.1708984,3.0293007-1.1708984c1.1758003,0,2.1133003,0.3993988,2.8144989,1.1983032
			c0.7031021,0.7978058,1.0527,1.8486023,1.0527,3.152298v4.2754059c0,1.2099915,0.017601,1.9375,0.0547028,2.1806946
			c0.035099,0.243103,0.0839996,0.4013062,0.1444969,0.4725952c0.0606003,0.0713043,0.1133003,0.1358032,0.1562996,0.1934052
			l-0.0214996,0.0429077c-0.5800972-0.0498047-1.0038986-0.0752106-1.2675972-0.0752106h-0.7520027
			c-0.2304001,0-0.5370979,0.0108032-0.9237976,0.0323029v-5.8544922c0-2.0987091-0.6387024-3.1475067-1.9121017-3.1475067
			c-0.9453011,0-1.7362976,0.4873047-2.375,1.4609985V185.032196z"/>
		<path d="M56.7813225,171.9804993c0.5742035-0.8954926,1.1718025-1.6826019,1.7949028-2.3632965l2.3085976,1.8153992
			c-0.3066978,0.3798981-0.5937996,0.7519989-0.8593979,1.1172028l-0.8262024,1.1708984L56.7813225,171.9804993z
			 M59.6074257,185.2041016c0,0.6161957,0.0136986,1.0166016,0.0429993,1.2030945h-2.7285004v-11.2254944h2.6855011V185.2041016z"/>
		<path d="M67.6211243,184.0440063c0.9237976,0,1.5566025-0.2403107,1.9003983-0.7198029h0.0858994l0.0332031,2.4922028
			c-0.3515015,0.3506012-1.0038986,0.5839996-1.9550018,0.698288c-0.2578964,0.0361023-0.5782013,0.0537109-0.9609985,0.0537109
			c-0.3848038,0-0.7987976-0.0713043-1.2461014-0.2149048c-0.4491959-0.1434937-0.830101-0.3759003-1.1445007-0.6981964
			c-0.6523972-0.6660004-0.9784966-1.7080078-0.9784966-3.1260071v-4.8768921h-1.6211014
			c-0.0078011-0.2080078-0.0116997-0.4190063-0.0116997-0.6338043v-1.6542969c0-0.1221008,0.0038986-0.1826019,0.0116997-0.1826019
			h1.6211014v-3.0615997h2.6328011v3.0615997h2.9530945v2.4707031H65.988327v4.3827972
			c0,1.1239929,0.3105011,1.7655945,0.9335938,1.9227905C67.1231232,184.0155945,67.3555222,184.0440063,67.6211243,184.0440063z"/>
		<path d="M71.0039215,180.8535004c0-0.7881012,0.1348038-1.5420074,0.4043045-2.2606964
			c0.267601-0.7207031,0.6523972-1.3486023,1.1542969-1.8858032c1.0957031-1.1600952,2.517601-1.7402039,4.2637024-1.7402039
			c1.7401962,0,3.1230011,0.5478973,4.1464996,1.6436005c0.982399,1.0458984,1.4726028,2.402298,1.4726028,4.0713043
			c0,1.6688995-0.505806,3.050705-1.5156021,4.1463928c-1.0663986,1.160202-2.4804993,1.7403107-4.2422028,1.7403107
			c-1.8202972,0-3.2440948-0.5694122-4.2753983-1.7080078C71.4727249,183.8222961,71.0039215,182.4862976,71.0039215,180.8535004z
			 M73.6152267,180.789093c0,0.4512024,0.074295,0.8877106,0.2245941,1.3105011
			c0.1504059,0.4229126,0.365303,0.7842102,0.6445999,1.0850067c0.5957031,0.6513977,1.375,0.9774933,2.3418045,0.9774933
			c0.8964996,0,1.6015015-0.3182983,2.1172028-0.9559937c0.5-0.6161957,0.7518997-1.4179993,0.7518997-2.4062958
			c0-1.0028992-0.2578049-1.8115082-0.773407-2.4277039c-0.5527954-0.6591949-1.306694-0.9882965-2.2675934-0.9882965
			c-0.972702,0-1.7363052,0.3506012-2.2871017,1.0526886C73.8652267,179.0811005,73.6152267,179.8652954,73.6152267,180.789093z"/>
		<path d="M87.2148209,185.2041016c0,0.6161957,0.0137024,1.0166016,0.0430069,1.2030945h-2.6758041v-11.2254944h2.6327972
			v0.8271027c0.6075058-0.6943054,1.2481003-1.0420074,1.9180069-1.0420074c0.6679993,0,1.1972961,0.0820007,1.5839996,0.2471008
			l-0.1934052,2.8896027l-0.0429001,0.0323029c-0.2519989-0.444397-0.7695999-0.6661072-1.5586014-0.6661072
			c-0.3007965,0-0.6054993,0.1016083-0.9179993,0.3067017c-0.3104935,0.2031097-0.5741959,0.4736023-0.7891006,0.8105011
			V185.2041016z"/>
		<path d="M91.6836243,171.9804993c0.5723038-0.8954926,1.169899-1.6826019,1.7929993-2.3632965l2.3105011,1.8153992
			c-0.3086014,0.3798981-0.5957031,0.7519989-0.8593979,1.1172028l-0.8281021,1.1708984L91.6836243,171.9804993z
			 M94.5078278,185.2041016c0,0.6161957,0.0155945,1.0166016,0.0429993,1.2030945h-2.7285004v-11.2254944h2.6855011V185.2041016z"/>
		<path d="M100.363327,185.032196c0,0.6298981,0.027298,1.0888977,0.0858994,1.375h-2.6972046v-11.2254944h2.6113052v0.9559937
			c0.9452972-0.7802887,1.955101-1.1708984,3.0292969-1.1708984c1.1737976,0,2.1112976,0.3993988,2.8143997,1.1983032
			c0.7012024,0.7978058,1.052803,1.8486023,1.052803,3.152298v4.2754059c0,1.2099915,0.0174942,1.9375,0.0526962,2.1806946
			c0.0371017,0.243103,0.0839996,0.4013062,0.1464996,0.4725952c0.0605011,0.0713043,0.1113052,0.1358032,0.1543045,0.1934052
			l-0.0214996,0.0429077c-0.580101-0.0498047-1.0020065-0.0752106-1.267601-0.0752106h-0.7518997
			c-0.2285004,0-0.5371017,0.0108032-0.9239044,0.0323029v-5.8544922c0-2.0987091-0.6366959-3.1475067-1.9120941-3.1475067
			c-0.9453049,0-1.7363052,0.4873047-2.3730011,1.4609985V185.032196z"/>
		<path d="M113.3496246,183.4208984c-0.2637024,0.3506012-0.3964996,0.6289062-0.3964996,0.8320007
			c0,0.2050934,0.0312958,0.3623962,0.0957031,0.472702c0.0644989,0.1112976,0.2050934,0.2167969,0.4199982,0.3173981
			c0.4725952,0.2216949,1.25,0.4170074,2.3300018,0.5848999c1.0820999,0.1690063,1.9296951,0.378006,2.5409927,0.6289978
			c0.6133041,0.2509003,1.1075058,0.5585022,1.4883041,0.9237976c0.7089996,0.6943054,1.0625,1.6797028,1.0625,2.9541016
			s-0.447197,2.2539062-1.3417969,2.9385071c-0.8965073,0.6835938-2.2246017,1.0253906-3.9863052,1.0253906
			c-1.7753983,0-3.2070007-0.386795-4.2968979-1.1601868c-1.0878983-0.773407-1.6464996-1.8008118-1.6758041-3.0830078
			c-0.0429001-1.4893036,0.5411072-2.5673981,1.7520065-3.2333984c-0.330101-0.2725067-0.5508041-0.592804-0.660202-0.960907
			c-0.1112976-0.3691864-0.1679001-0.7901001-0.1679001-1.2626953c0-0.7949982,0.3476028-1.467804,1.0429001-2.0195923
			c-0.8105011-0.7666016-1.214798-1.7187042-1.214798-2.8574066c0-1.2743988,0.4589996-2.3417969,1.375-3.2012024
			c0.9667969-0.902298,2.2206955-1.3535004,3.7597961-1.3535004c0.8105011,0,1.5682983,0.1504059,2.277298,0.4512024
			c0.9317017-0.3936005,1.6152039-0.7393036,2.0527039-1.0361023c0.4356003-0.2978973,0.7148972-0.5146942,0.8378983-0.6503906
			l0.0644989,0.0106964c0.0643997,0.1718903,0.1387024,0.4149933,0.2246017,0.7304993l0.1933975,0.7733917
			c0.1718063,0.6377106,0.2752991,1.0742035,0.3125,1.3106079c-0.3163986,0.3437042-0.8710938,0.5868988-1.6660995,0.7303925
			c0.3086014,0.5948029,0.4629059,1.2246094,0.4629059,1.8907013c0,0.6660004-0.1152039,1.2695007-0.3437042,1.8095093
			c-0.2304993,0.5410004-0.5547028,1.0155945-0.9785004,1.4238892c-0.9375,0.8808136-2.1327972,1.3212128-3.5878983,1.3212128
			C114.6172256,183.7324066,113.9590225,183.6289062,113.3496246,183.4208984z M115.703125,191.8213043
			c1.7616959,0,2.642601-0.6162109,2.642601-1.8476105c0-0.5869904-0.2871017-1.0596008-0.8593979-1.4179993
			c-0.6445007-0.4081879-1.7519073-0.726593-3.3203049-0.9561005l-0.5586014-0.0966949
			c-0.4725952,0.2510071-0.8202972,0.5733032-1.0410004,0.9667969c-0.2225952,0.3936005-0.3320007,0.7676086-0.3280945,1.1231079
			c0.0038986,0.3535004,0.0878983,0.6600952,0.2518997,0.9179993c0.1660995,0.2577972,0.3945999,0.4833984,0.6875,0.6766968
			C113.8301239,191.6103973,114.6719208,191.8213043,115.703125,191.8213043z M113.0703278,178.5868988
			c-0.0996017,0.2577972-0.1504059,0.5196075-0.1504059,0.7841949c0,0.2647095,0.0567017,0.5195007,0.1679993,0.7627106
			c0.1094055,0.2431946,0.273407,0.4618988,0.4883041,0.6552887c0.4785004,0.4297028,1.1054001,0.6445007,1.8788986,0.6445007
			c0.5878983,0,1.0957031-0.1972961,1.5253983-0.5907898c0.4511032-0.4297028,0.6777039-0.9473114,0.6777039-1.5527039
			c0-0.6045074-0.205101-1.0937958-0.6133041-1.4658966c-0.4081955-0.3720093-0.9706955-0.558609-1.6855011-0.558609
			C114.1777267,177.2655945,113.4141235,177.7061005,113.0703278,178.5868988z"/>
		<path d="M124.8770218,181.0361938c-0.5449982,0-0.9882965,0.0175018-1.3320999,0.0537109l0.0313034-2.6534119
			c0.1660004,0.0430145,0.6385956,0.0645142,1.4179001,0.0645142h4.1797028c0.7870941,0,1.2597961-0.0214996,1.4179993-0.0645142
			l0.0312958,2.6534119c-0.3437958-0.0362091-0.7872009-0.0537109-1.3320923-0.0537109H124.8770218z"/>
		<path d="M148.1445312,185.4297028c-0.9179077,0.7588043-1.9160004,1.1387024-2.9980011,1.1387024
			c-1.160202,0-2.0684052-0.3906097-2.7285004-1.1708984c-0.6289062-0.7588043-0.9453125-1.8008118-0.9453125-3.1260071v-4.2646027
			c0-1.4326935-0.0292969-2.2539978-0.0898895-2.4648895c-0.0625-0.2119141-0.1074066-0.3457031-0.1347046-0.4033051
			c0.3280945,0.0283051,0.6717987,0.0429993,1.0312042,0.0429993h0.8905945c0.2364044,0,0.5489044-0.0108032,0.9356079-0.0323029
			v6.2198029c0,1.4754944,0.4003906,2.3309937,1.2030945,2.5672913c0.2422028,0.0713043,0.5077972,0.1075134,0.7949066,0.1075134
			c0.8437958,0,1.5253906-0.3077087,2.0410004-0.9239044v-7.9384003h2.664093v9.8504944
			c0,0.6298981,0.027298,1.0888977,0.085907,1.375h-2.75V185.4297028z"/>
		<path d="M157.0606232,185.032196c0,0.6298981,0.027298,1.0888977,0.085907,1.375h-2.6973114v-11.2254944h2.6114044v0.9559937
			c0.9452972-0.7802887,1.9550018-1.1708984,3.0292053-1.1708984c1.1738892,0,2.1113892,0.3993988,2.8144989,1.1983032
			c0.7012024,0.7978058,1.0527039,1.8486023,1.0527039,3.152298v4.2754059c0,1.2099915,0.0175934,1.9375,0.0527954,2.1806946
			c0.0370941,0.243103,0.0839996,0.4013062,0.1464996,0.4725952c0.0605011,0.0713043,0.1112976,0.1358032,0.1542969,0.1934052
			l-0.0214996,0.0429077c-0.5800934-0.0498047-1.0019989-0.0752106-1.2675934-0.0752106h-0.7519989
			c-0.2285004,0-0.5371094,0.0108032-0.9238129,0.0323029v-5.8544922c0-2.0987091-0.6366882-3.1475067-1.9120941-3.1475067
			c-0.9452972,0-1.7362976,0.4873047-2.3730011,1.4609985V185.032196z"/>
		<path d="M174.7949219,185.8056946c-0.9082031,0.5088043-1.8182983,0.7627106-2.7285004,0.7627106
			c-0.9082031,0-1.7030945-0.1436005-2.3847961-0.4297028c-0.6795959-0.2861023-1.2597046-0.6807098-1.7402039-1.1817017
			c-0.9882965-1.0312042-1.4823914-2.3701019-1.4823914-4.0175018c0-1.7041016,0.5741882-3.1221008,1.718689-4.2539062
			c1.1543121-1.1454926,2.6289062-1.7187958,4.4258118-1.7187958c0.5527954,0,1.0917969,0.0713043,1.6230927,0.2149048v-4.780304
			h2.6307983v11.4833984c0,0.9521027,0.0449066,1.5752106,0.1347961,1.8691101
			c0.0898132,0.2939911,0.1894073,0.5087891,0.3008118,0.6445923c0.1112976,0.1356964,0.2518921,0.2646027,0.4237976,0.3867035
			l-2.0195007,1.7832031C175.3262177,186.3681946,175.0254211,186.1132965,174.7949219,185.8056946z M172.5723267,184.097702
			c0.6015015,0,1.152298-0.1143036,1.6542969-0.3437958v-5.9511108c-0.5019989-0.2080994-1.0469055-0.3115997-1.6327972-0.3115997
			c-0.5879059,0-1.0899048,0.0791016-1.5097961,0.2364044c-0.4179993,0.157196-0.7793121,0.3759003-1.0801086,0.6551971
			c-0.628891,0.5868988-0.9452972,1.3496094-0.9452972,2.2881012c0,1.0243988,0.2870941,1.8408051,0.8594055,2.4492035
			C170.5352173,183.7714996,171.4180298,184.097702,172.5723267,184.097702z"/>
		<path d="M188.5566254,186.4931946c-0.6170959-0.0576019-1.335907-0.0859985-2.1600952-0.0859985h-0.847702l4.6718903-13.094696
			c0.2089996-0.5868988,0.3125-0.9286957,0.3125-1.0263062c0-0.0957947-0.003891-0.1552887-0.0116882-0.1767883l0.0116882-0.0214996
			c0.4649048,0.0214996,0.9589996,0.032196,1.4824066,0.032196c0.4297028,0,0.9452972-0.0068054,1.5469055-0.0214081
			l0.0097961,0.0214081c-0.0137024,0.0283966-0.0214996,0.0684052-0.0214996,0.1181946
			c0,0.1356964,0.1073914,0.4980011,0.3222961,1.0850067l4.7695007,13.1161957
			c-0.1425934-0.006897-0.3105927-0.0108032-0.5039062-0.0108032l-0.5585938-0.0214996c-0.1797028,0-0.3399048,0-0.4844055,0
			h-1.664093l-1.0097046-3.093689h-4.8554993L188.5566254,186.4931946z M193.5840302,180.7353973l-1.6231079-4.9951019
			l-1.5780945,4.9951019H193.5840302z"/>
		<path d="M202.929718,185.032196c0,0.6298981,0.0273132,1.0888977,0.085907,1.375h-2.6972046v-11.2254944h2.6112976v0.9559937
			c0.9453125-0.7802887,1.9551086-1.1708984,3.0293121-1.1708984c1.1737976,0,2.1112976,0.3993988,2.8143921,1.1983032
			c0.7012024,0.7978058,1.0527954,1.8486023,1.0527954,3.152298v4.2754059c0,1.2099915,0.0176086,1.9375,0.0527039,2.1806946
			c0.0371094,0.243103,0.0839996,0.4013062,0.1464996,0.4725952c0.0605011,0.0713043,0.1112976,0.1358032,0.1542969,0.1934052
			l-0.0214996,0.0429077c-0.5800934-0.0498047-1.0018921-0.0752106-1.2675934-0.0752106h-0.7519073
			c-0.2285004,0-0.5370941,0.0108032-0.9238892,0.0323029v-5.8544922c0-2.0987091-0.6367035-3.1475067-1.9121094-3.1475067
			c-0.9452972,0-1.7362976,0.4873047-2.3730011,1.4609985V185.032196z"/>
		<path d="M215.4551239,185.2041016c0,0.6161957,0.0137024,1.0166016,0.0429993,1.2030945h-2.7285919v-16.0057983h2.6855927
			V185.2041016z"/>
		<path d="M225.8848267,185.7411957c-1.0157013,0.5518036-1.9375,0.8272095-2.7597961,0.8272095
			c-0.8242035,0-1.5293121-0.0772095-2.1172028-0.2315063c-0.585907-0.1533051-1.0839996-0.3807983-1.4922028-0.6815948
			c-0.8320007-0.6083984-1.2460938-1.4893036-1.2460938-2.6426086c0-1.031189,0.5077972-1.8905945,1.5253906-2.5780945
			c1.1016083-0.7451019,2.5996094-1.1172028,4.4902954-1.1172028l0.4296112,0.0106964
			c0.0859985,0.0069122,0.1817017,0.0127106,0.289093,0.0166016c0.1074066,0.003006,0.2051086,0.0118103,0.2910004,0.0263977
			c-0.0585938-1.1454926-0.5527039-1.8153992-1.4823914-2.0087891c-0.308609-0.0644073-0.6367035-0.0967102-0.9824066-0.0967102
			c-0.347702,0-0.6875,0.030304-1.0214996,0.0909119c-0.3320007,0.0614929-0.6562958,0.1415863-0.972702,0.2421875
			c-0.6932983,0.2216034-1.191391,0.4765015-1.4920959,0.7626038l-0.0332031-0.0213928l-0.3222961-2.3740997
			c1.2675934-0.6660004,2.6542969-0.9990082,4.1582031-0.9990082c2.3339996,0,3.8280945,0.8417969,4.4785004,2.5243988
			c0.2089996,0.5371094,0.3125,1.1426086,0.3125,1.815506v3.8885956c0,0.8311005,0.2929993,1.3964996,0.8808899,1.6972961
			l-1.9452972,1.7832031C226.4648285,186.4609985,226.1367188,186.1493988,225.8848267,185.7411957z M225.304718,181.3047028
			c-0.1933899-0.0361023-0.3925934-0.0536957-0.601593-0.0536957h-0.4297028c-1.5820007,0-2.5877991,0.3505859-3.0175018,1.0526886
			c-0.128891,0.2080078-0.1933899,0.4258118-0.1933899,0.655304c0,0.2295074,0.0410004,0.4315948,0.1230927,0.6063995
			c0.0820007,0.1757965,0.2207031,0.3213043,0.4140015,0.4356079c0.3710938,0.214798,0.9257965,0.3222961,1.660202,0.3222961
			c0.7323914,0,1.4178925-0.1757965,2.0565948-0.5263977c-0.0077972-0.0791016-0.0117035-0.1611023-0.0117035-0.2471008V181.3047028
			z"/>
		<path d="M238.0137177,185.4297028c-0.9179993,0.7588043-1.9160004,1.1387024-2.9980927,1.1387024
			c-1.1600952,0-2.0682983-0.3906097-2.7285004-1.1708984c-0.6289062-0.7588043-0.9452972-1.8008118-0.9452972-3.1260071v-4.2646027
			c0-1.4326935-0.0292969-2.2539978-0.089798-2.4648895c-0.0625-0.2119141-0.1074982-0.3457031-0.1348114-0.4033051
			c0.3281097,0.0283051,0.6719055,0.0429993,1.0312042,0.0429993h0.8907013c0.2362976,0,0.5487976-0.0108032,0.9355011-0.0323029
			v6.2198029c0,1.4754944,0.4004059,2.3309937,1.2030945,2.5672913c0.2422028,0.0713043,0.5079041,0.1075134,0.7949982,0.1075134
			c0.8437042,0,1.5254059-0.3077087,2.0410004-0.9239044v-7.9384003h2.6640015v9.8504944
			c0,0.6298981,0.0274048,1.0888977,0.0859985,1.375h-2.75V185.4297028z"/>
		<path d="M249.4648285,176.4170074c-0.0585022,0.2079926-0.085907,0.7304993-0.085907,1.5683899v0.9452972h-2.589798v7.4765015
			h-2.6309052v-7.4765015h-1.5800934c0.0077972-0.472702,0.0157013-0.8916016,0.0214996-1.256897l0.0214996-1.1493988v-0.1073914
			h1.5370941v-0.6660004c0-1.718811,0.4004059-3.1006012,1.2031097-4.1464996
			c0.8378906-1.0810089,1.9902954-1.6221008,3.4589996-1.6221008c0.6230927,0,1.035202,0.0429993,1.2343903,0.128891
			l0.0117035,2.6963043l-0.0214996,0.0536957c-0.2733917-0.2723999-0.6172028-0.4082031-1.0370941-0.4082031
			c-0.4179993,0-0.7577972,0.0694122-1.0156097,0.2100067c-0.2577972,0.1387024-0.476593,0.3379059-0.6542969,0.5957031
			c-0.3652039,0.5155945-0.5487976,1.2207031-0.5487976,2.1161957v1.0420074H249.4648285z"/>
		<path d="M255.2324219,186.5684052c-2.0195007,0-3.5410004-0.3692017-4.5643921-1.1065063
			c0.0135956-0.214798,0.0350952-0.4579926,0.0643921-0.7303925l0.0957031-0.7735138
			c0.0585938-0.5087891,0.0937958-0.8251953,0.1074982-0.9510956c0.0155945-0.125,0.0252991-0.1933899,0.0332031-0.2032013
			c0.0057983-0.0116882,0.0643921,0.0458984,0.1717987,0.1719055c0.1074982,0.125,0.3105927,0.277298,0.6114044,0.4561005
			c0.3006897,0.1786957,0.6483917,0.3368988,1.0428925,0.4725952c0.8516083,0.2940063,1.7402954,0.4403992,2.6641083,0.4403992
			c1.2382965,0,1.8574066-0.4120941,1.8574066-1.2352905c0-0.2647095-0.117218-0.4618988-0.3535156-0.5908051
			c-0.4237976-0.2149048-1.0448914-0.378006-1.8632965-0.4882965c-0.8202972-0.1112976-1.4922028-0.2743988-2.0155945-0.4893036
			c-0.5214996-0.214798-0.9492035-0.4725952-1.2774048-0.773407c-0.6092987-0.5653992-0.9140015-1.3065948-0.9140015-2.223587
			c0-1.1172028,0.4297028-1.9942017,1.2890015-2.6319122c0.8535919-0.6298981,2.0312958-0.9452972,3.535202-0.9452972
			c1.4883118,0,2.7597961,0.4228973,3.8125,1.2676086c-0.0487976,0.1864929-0.1035156,0.3651886-0.1602173,0.5370941
			c-0.1659851,0.472702-0.2870789,0.8125-0.3651733,1.0205078l-0.2480164,0.6337891
			c-0.0137024,0.0576019-0.0253906,0.085907-0.031311,0.085907c-0.0155945,0-0.0722961-0.0752106-0.171875-0.2255096
			c-0.4511108-0.5224915-1.1542969-0.8662872-2.1054077-1.0312958c-0.2950134-0.0576019-0.5957031-0.0858917-0.9024048-0.0858917
			c-1.3047028,0-1.9550934,0.3934937-1.9550934,1.1815948c0,0.2724915,0.1347961,0.4794922,0.4082947,0.6230927
			c0.5077972,0.2723999,1.2050018,0.4726105,2.089798,0.6015015c0.8828125,0.1289062,1.554718,0.3027039,2.0137024,0.5214996
			c0.4570007,0.217804,0.8261108,0.4813995,1.1054077,0.7891083c0.515686,0.5585938,0.7734985,1.2997894,0.7734985,2.2236023
			c0,1.0097961-0.4042969,1.8300934-1.2128906,2.4599915C257.921936,186.2353973,256.7441101,186.5684052,255.2324219,186.5684052z"
			/>
		<path d="M267.4570312,184.0440063c0.9238892,0,1.5585938-0.2403107,1.9024048-0.7198029h0.0858765l0.031311,2.4922028
			c-0.3496094,0.3506012-1.0020142,0.5839996-1.9551086,0.698288c-0.257782,0.0361023-0.5780945,0.0537109-0.9608765,0.0537109
			c-0.3829041,0-0.7989197-0.0713043-1.2461243-0.2149048c-0.4472961-0.1434937-0.828186-0.3759003-1.1445923-0.6981964
			c-0.6503906-0.6660004-0.9765015-1.7080078-0.9765015-3.1260071v-4.8768921h-1.6231079
			c-0.0057983-0.2080078-0.0096741-0.4190063-0.0096741-0.6338043v-1.6542969c0-0.1221008,0.0038757-0.1826019,0.0096741-0.1826019
			h1.6231079v-3.0615997h2.6307983v3.0615997h2.9551086v2.4707031h-2.9551086v4.3827972
			c0,1.1239929,0.3125,1.7655945,0.9356079,1.9227905C266.9590149,184.0155945,267.1934204,184.0440063,267.4570312,184.0440063z"/>
		<path d="M271.1211243,180.8858032c0-0.8379059,0.1426086-1.6153107,0.4296875-2.3311005
			c0.2851257-0.7158051,0.6914062-1.342804,1.2129211-1.8798981c1.1171875-1.1386108,2.5780945-1.7080078,4.382782-1.7080078
			c1.5254211,0,2.75,0.5048981,3.6737976,1.5147095c0.9102173,0.973587,1.3653259,2.1981964,1.3653259,3.6737976
			c0,0.5653992-0.0429993,0.9521027-0.1290283,1.1600952c-0.7167969,0.2001953-2.1737976,0.3007965-4.3729858,0.3007965h-3.781311
			c0.1875,0.7666016,0.6192017,1.3623047,1.3008118,1.7891083c0.6796875,0.4257965,1.5645142,0.6387024,2.6524048,0.6387024
			c1.1385803,0,2.1171875-0.2041016,2.9335938-0.6123047c0.2148132-0.1074982,0.375-0.2080078,0.4823914-0.3007965
			c-0.0137024,0.3007965-0.0312805,0.6083984-0.0527039,0.9237976l-0.1192017,1.6757965
			c-0.5429993,0.3721008-1.4237976,0.6298981-2.6425781,0.773407c-0.3574219,0.0429993-0.7011108,0.0644989-1.0312195,0.0644989
			c-1.8183899,0-3.3222961-0.530304-4.5116882-1.5899048C271.718811,183.9111938,271.1211243,182.5469055,271.1211243,180.8858032z
			 M279.328125,179.532196c-0.2948914-1.5399933-1.1328125-2.309494-2.5136108-2.309494
			c-1.0899048,0-1.9160767,0.4687042-2.4824829,1.407196c-0.171814,0.2861023-0.304718,0.6016083-0.3963928,0.9452972
			c0.1717834,0.0068054,0.382782,0.0147095,0.632782,0.0214996h0.7948914
			c0.265625,0.0068054,0.5195007,0.0107117,0.7637024,0.0107117h0.6112976c0.3652039,0,0.7246094-0.0039062,1.0742188-0.0107117
			l0.8808899-0.032196C278.929718,179.5576019,279.140625,179.5469055,279.328125,179.532196z"/>
		<path d="M287.0078125,185.2041016c0,0.6161957,0.015625,1.0166016,0.0429993,1.2030945h-2.7284851v-16.0057983h2.6854858
			V185.2041016z"/>
		<path d="M292.5195312,185.2041016c0,0.6161957,0.0137024,1.0166016,0.0429993,1.2030945h-2.7285156v-16.0057983h2.6855164
			V185.2041016z"/>
		<path d="M295.0000305,180.8858032c0-0.8379059,0.1445007-1.6153107,0.4296875-2.3311005
			c0.2871094-0.7158051,0.6914062-1.342804,1.2148132-1.8798981c1.1171875-1.1386108,2.578186-1.7080078,4.382782-1.7080078
			c1.5254211,0,2.75,0.5048981,3.6739197,1.5147095c0.9082031,0.973587,1.3632812,2.1981964,1.3632812,3.6737976
			c0,0.5653992-0.0429993,0.9521027-0.1288757,1.1600952c-0.7149048,0.2001953-2.1739197,0.3007965-4.3711243,0.3007965h-3.7812805
			c0.1855774,0.7666016,0.6190796,1.3623047,1.2987976,1.7891083c0.6817017,0.4257965,1.5644836,0.6387024,2.6542969,0.6387024
			c1.1387024,0,2.1152954-0.2041016,2.9317017-0.6123047c0.2147827-0.1074982,0.3768921-0.2080078,0.4842834-0.3007965
			c-0.0155945,0.3007965-0.0332031,0.6083984-0.0545959,0.9237976l-0.1171875,1.6757965
			c-0.5448914,0.3721008-1.4258118,0.6298981-2.6426086,0.773407c-0.3594055,0.0429993-0.7030945,0.0644989-1.031311,0.0644989
			c-1.820282,0-3.3241882-0.530304-4.5116882-1.5899048C295.5977173,183.9111938,295.0000305,182.5469055,295.0000305,180.8858032z
			 M303.2070312,179.532196c-0.2929077-1.5399933-1.1307983-2.309494-2.5136108-2.309494
			c-1.0878906,0-1.9161072,0.4687042-2.4804993,1.407196c-0.1719055,0.2861023-0.3046875,0.6016083-0.398407,0.9452972
			c0.171814,0.0068054,0.3828125,0.0147095,0.6347046,0.0214996h0.7948914
			c0.2637024,0.0068054,0.5196228,0.0107117,0.7618103,0.0107117h0.6131897c0.3653259,0,0.7227173-0.0039062,1.0743103-0.0107117
			l0.8807983-0.032196C302.8106384,179.5576019,303.0215149,179.5469055,303.2070312,179.532196z"/>
		<path d="M321.0508118,176.4170074c-0.0585938,0.2079926-0.0859985,0.7304993-0.0859985,1.5683899v0.9452972h-2.5897827v7.4765015
			h-2.6309204v-7.4765015h-1.5799866c0.0078125-0.472702,0.0155945-0.8916016,0.0215149-1.256897l0.0213928-1.1493988v-0.1073914
			h1.5370789v-0.6660004c0-1.718811,0.4004211-3.1006012,1.2032166-4.1464996
			c0.8378906-1.0810089,1.9902039-1.6221008,3.4589844-1.6221008c0.6230164,0,1.0351257,0.0429993,1.234314,0.128891
			l0.0116882,2.6963043l-0.0213928,0.0536957c-0.2734985-0.2723999-0.6171875-0.4082031-1.0371094-0.4082031
			c-0.4179993,0-0.7578735,0.0694122-1.015686,0.2100067c-0.2578125,0.1387024-0.4765015,0.3379059-0.6542969,0.5957031
			c-0.3652039,0.5155945-0.5487976,1.2207031-0.5487976,2.1161957v1.0420074H321.0508118z"/>
		<path d="M329.7617188,185.4297028c-0.9159851,0.7588043-1.9159851,1.1387024-2.9960938,1.1387024
			c-1.1600952,0-2.0703125-0.3906097-2.7285156-1.1708984c-0.6307983-0.7588043-0.945282-1.8008118-0.945282-3.1260071v-4.2646027
			c0-1.4326935-0.031189-2.2539978-0.0917969-2.4648895c-0.0605164-0.2119141-0.1054993-0.3457031-0.1347961-0.4033051
			c0.3300781,0.0283051,0.6738892,0.0429993,1.0312805,0.0429993h0.8926086c0.2362976,0,0.546814-0.0108032,0.9335938-0.0323029
			v6.2198029c0,1.4754944,0.4023132,2.3309937,1.2030945,2.5672913c0.2441101,0.0713043,0.5098267,0.1075134,0.7949219,0.1075134
			c0.8457031,0,1.5253906-0.3077087,2.0409851-0.9239044v-7.9384003h2.664093v9.8504944
			c0,0.6298981,0.0293274,1.0888977,0.085907,1.375h-2.75V185.4297028z M326.7012329,171.0458984
			c-0.0292969,0.3583984-0.0429993,0.8144989-0.0429993,1.3692017c0,0.555603,0.0137024,0.9579926,0.0429993,1.2088928h-2.8477173
			c0.0585938-0.4442902,0.0859985-0.8827972,0.0859985-1.316391c0-0.4326019-0.0214844-0.8535004-0.0644836-1.2617035H326.7012329z
			 M331.3203125,171.0458984c-0.0292969,0.3583984-0.0429993,0.8144989-0.0429993,1.3692017
			c0,0.555603,0.0137024,0.9579926,0.0429993,1.2088928h-2.8475952c0.0585938-0.4442902,0.085907-0.8827972,0.085907-1.316391
			c0-0.4326019-0.0215149-0.8535004-0.0645142-1.2617035H331.3203125z"/>
		<path d="M338.3887329,185.2041016c0,0.6161957,0.0135803,1.0166016,0.0428772,1.2030945h-2.6756897v-11.2254944h2.6328125
			v0.8271027c0.6073914-0.6943054,1.2479858-1.0420074,1.9178772-1.0420074c0.6679993,0,1.1973267,0.0820007,1.5840149,0.2471008
			l-0.1932983,2.8896027l-0.0429993,0.0323029c-0.2520142-0.444397-0.7695007-0.6661072-1.5585938-0.6661072
			c-0.3008118,0-0.6054993,0.1016083-0.9179993,0.3067017c-0.3105164,0.2031097-0.5742188,0.4736023-0.7890015,0.8105011
			V185.2041016z"/>
		<path d="M13.2538996,202.1817017h3.0409994l2.6211014,7.3905945l2.5352249-7.3905945h2.974575l-4.4355755,11.2254944h-2.212925
			L13.2538996,202.1817017z"/>
		<path d="M25.1348,207.8535004c0-0.7881012,0.1346989-1.5420074,0.4042988-2.2606964
			c0.2674999-0.7207031,0.6522999-1.3486023,1.1543007-1.8858032c1.0956993-1.1600952,2.5174999-1.7402039,4.2635994-1.7402039
			c1.7403011,0,3.1231022,0.5478973,4.1465244,1.6436005c0.9824028,1.0458984,1.472702,2.402298,1.472702,4.0713043
			c0,1.6688995-0.5059013,3.050705-1.515625,4.1463928c-1.0665016,1.160202-2.4804993,1.7403107-4.2422009,1.7403107
			c-1.8203011,0-3.244175-0.5694122-4.2754002-1.7080078C25.6034985,210.8222961,25.1348,209.4862976,25.1348,207.8535004z
			 M27.7460995,207.789093c0,0.4512024,0.0741997,0.8877106,0.2245998,1.3105011
			c0.1504002,0.4229126,0.3652,0.7842102,0.6445255,1.0850067c0.5956745,0.6513977,1.375,0.9774933,2.341774,0.9774933
			c0.8964996,0,1.6015987-0.3182983,2.1172237-0.9559937c0.5-0.6161957,0.7520027-1.4179993,0.7520027-2.4062958
			c0-1.0028992-0.2578278-1.8115082-0.7735252-2.4277039c-0.5527-0.6591949-1.3066006-0.9882965-2.2674751-0.9882965
			c-0.9727249,0-1.7364254,0.3506012-2.2871265,1.0526886C27.9960995,206.0811005,27.7460995,206.8652954,27.7460995,207.789093z"/>
		<path d="M41.345726,212.2041016c0,0.6161957,0.0136986,1.0166016,0.0429993,1.2030945H38.712925v-11.2254944h2.6328011v0.8271027
			c0.607399-0.6943054,1.2480965-1.0420074,1.9179993-1.0420074c0.6679001,0,1.1972008,0.0820007,1.5839996,0.2471008
			l-0.1934013,2.8896027l-0.0429993,0.0323029c-0.2518997-0.444397-0.7695007-0.6661072-1.5586014-0.6661072
			c-0.3006973,0-0.6054001,0.1016083-0.9179001,0.3067017c-0.3106003,0.2031097-0.5741997,0.4736023-0.7890968,0.8105011
			V212.2041016z"/>
		<path d="M48.650425,212.2041016c0,0.6161957,0.0136986,1.0166016,0.0429993,1.2030945h-2.7285995v-16.0057983h2.6856003
			V212.2041016z"/>
		<path d="M59.0801239,212.7411957c-1.0155983,0.5518036-1.9375,0.8272095-2.7598,0.8272095
			c-0.8241997,0-1.5293007-0.0772095-2.1171989-0.2315063c-0.5858994-0.1533051-1.0839996-0.3807983-1.4921989-0.6815948
			c-0.8320007-0.6083984-1.2461014-1.4893036-1.2461014-2.6426086c0-1.031189,0.5079002-1.8905945,1.5253983-2.5780945
			c1.1016006-0.7451019,2.5996017-1.1172028,4.490303-1.1172028l0.4296989,0.0106964
			c0.0858994,0.0069122,0.1815987,0.0127106,0.2889977,0.0166016c0.1074028,0.003006,0.205101,0.0118103,0.2910004,0.0263977
			c-0.0585976-1.1454926-0.5527-1.8153992-1.482399-2.0087891c-0.3086014-0.0644073-0.6366997-0.0967102-0.982399-0.0967102
			c-0.347702,0-0.6875,0.030304-1.0214996,0.0909119c-0.3320007,0.0614929-0.6562004,0.1415863-0.9726028,0.2421875
			c-0.6933975,0.2216034-1.1914978,0.4765015-1.4921989,0.7626038l-0.0331993-0.0213928l-0.3223-2.3740997
			c1.267601-0.6660004,2.6543007-0.9990082,4.1581993-0.9990082c2.3339996,0,3.8281021,0.8417969,4.4785004,2.5243988
			c0.2089996,0.5371094,0.3125,1.1426086,0.3125,1.815506v3.8885956c0,0.8311005,0.2929993,1.3964996,0.8809013,1.6972961
			l-1.9453011,1.7832031C59.6602249,213.4609985,59.3320236,213.1493988,59.0801239,212.7411957z M55.4824257,198.0458984
			c-0.0293007,0.3583984-0.0429001,0.8144989-0.0429001,1.3692017c0,0.555603,0.0135994,0.9579926,0.0429001,1.2088928h-2.8476028
			c0.0586014-0.4442902,0.0859032-0.8827972,0.0859032-1.316391c0-0.4326019-0.0215034-0.8535004-0.0644035-1.2617035H55.4824257z
			 M58.5000229,208.3047028c-0.1933975-0.0361023-0.3925972-0.0536957-0.6015968-0.0536957h-0.4296036
			c-1.5820999,0-2.5878983,0.3505859-3.0175972,1.0526886c-0.1289024,0.2080078-0.1934013,0.4258118-0.1934013,0.655304
			c0,0.2295074,0.0410004,0.4315948,0.1231003,0.6063995c0.0820007,0.1757965,0.2206993,0.3213043,0.4140015,0.4356079
			c0.3710976,0.214798,0.9258003,0.3222961,1.6601982,0.3222961c0.732399,0,1.4179993-0.1757965,2.0565987-0.5263977
			c-0.0077972-0.0791016-0.0116997-0.1611023-0.0116997-0.2471008V208.3047028z M60.1016235,198.0458984
			c-0.0293007,0.3583984-0.0429993,0.8144989-0.0429993,1.3692017c0,0.555603,0.0136986,0.9579926,0.0429993,1.2088928h-2.8476982
			c0.0585976-0.4442902,0.0858994-0.8827972,0.0858994-1.316391c0-0.4326019-0.0214005-0.8535004-0.0643997-1.2617035H60.1016235z"
			/>
		<path d="M71.2090225,212.4297028c-0.9179993,0.7588043-1.9160004,1.1387024-2.9981003,1.1387024
			c-1.1600952,0-2.0682983-0.3906097-2.7285004-1.1708984c-0.6288986-0.7588043-0.9452972-1.8008118-0.9452972-3.1260071v-4.2646027
			c0-1.4326935-0.0292969-2.2539978-0.089798-2.4648895c-0.0625-0.2119141-0.1075058-0.3457031-0.1348038-0.4033051
			c0.3281021,0.0283051,0.6718979,0.0429993,1.0313034,0.0429993h0.8905945c0.2363052,0,0.5488052-0.0108032,0.9355011-0.0323029
			v6.2198029c0,1.4754944,0.4004059,2.3309937,1.2032013,2.5672913c0.2421036,0.0713043,0.5078049,0.1075134,0.794899,0.1075134
			c0.8437042,0,1.5254059-0.3077087,2.0410004-0.9239044v-7.9384003h2.6641006v9.8504944
			c0,0.6298981,0.027298,1.0888977,0.0858994,1.375h-2.75V212.4297028z"/>
		<path d="M82.6602249,203.4170074c-0.0586014,0.2079926-0.0859985,0.7304993-0.0859985,1.5683899v0.9452972h-2.5898056v7.4765015
			h-2.6308975v-7.4765015h-1.580101c0.0079041-0.472702,0.0157013-0.8916016,0.0214996-1.256897l0.0214996-1.1493988v-0.1073914
			h1.5371017v-0.6660004c0-1.718811,0.4003983-3.1006012,1.2031021-4.1464996
			c0.8378983-1.0810089,1.9902954-1.6221008,3.4589996-1.6221008c0.6231003,0,1.035202,0.0429993,1.2343979,0.128891
			l0.0117035,2.6963043l-0.0214996,0.0536957c-0.2733994-0.2723999-0.6171036-0.4082031-1.0371017-0.4082031
			c-0.4179001,0-0.7577972,0.0694122-1.0156021,0.2100067c-0.2577972,0.1387024-0.4766006,0.3379059-0.6542969,0.5957031
			c-0.3652039,0.5155945-0.5488052,1.2207031-0.5488052,2.1161957v1.0420074H82.6602249z"/>
		<path d="M84.3027267,198.9804993c0.574295-0.8954926,1.1718979-1.6826019,1.7949982-2.3632965l2.3086014,1.8153992
			c-0.3067017,0.3798981-0.5938034,0.7519989-0.8594055,1.1172028l-0.8261948,1.1708984L84.3027267,198.9804993z
			 M87.1289215,212.2041016c0,0.6161957,0.0137024,1.0166016,0.0429993,1.2030945H84.443428v-11.2254944h2.6854935V212.2041016z"/>
		<path d="M93.1113281,210.4208984c-0.2636032,0.3506012-0.3965073,0.6289062-0.3965073,0.8320007
			c0,0.2050934,0.0313034,0.3623962,0.0958023,0.472702c0.0643997,0.1112976,0.2050018,0.2167969,0.419899,0.3173981
			c0.4726028,0.2216949,1.25,0.4170074,2.330101,0.5848999c1.0820007,0.1690063,1.9296036,0.378006,2.5410004,0.6289978
			c0.6131973,0.2509003,1.107399,0.5585022,1.4881973,0.9237976c0.7090073,0.6943054,1.0625,1.6797028,1.0625,2.9541016
			s-0.447197,2.2539062-1.3416977,2.9385071c-0.8964996,0.6835938-2.2247009,1.0253906-3.9863968,1.0253906
			c-1.7753983,0-3.2070007-0.386795-4.2969055-1.1601868c-1.0877991-0.773407-1.6463928-1.8008118-1.6756973-3.0830078
			c-0.0429993-1.4893036,0.5410004-2.5673981,1.7518997-3.2333984c-0.330101-0.2725067-0.5507965-0.592804-0.6600952-0.960907
			c-0.1114044-0.3691864-0.1680069-0.7901001-0.1680069-1.2626953c0-0.7949982,0.347702-1.467804,1.0430069-2.0195923
			c-0.8106003-0.7666016-1.2149048-1.7187042-1.2149048-2.8574066c0-1.2743988,0.4589996-2.3417969,1.375-3.2012024
			c0.9668045-0.902298,2.2207031-1.3535004,3.7598038-1.3535004c0.8105011,0,1.5682983,0.1504059,2.277298,0.4512024
			c0.9317017-0.3936005,1.615303-0.7393036,2.052803-1.0361023c0.4354935-0.2978973,0.714798-0.5146942,0.8378983-0.6503906
			l0.0643997,0.0106964c0.0644989,0.1718903,0.1386948,0.4149933,0.2246017,0.7304993l0.1933975,0.7733917
			c0.1718979,0.6377106,0.2753983,1.0742035,0.3125,1.3106079c-0.3163986,0.3437042-0.8711014,0.5868988-1.6660004,0.7303925
			c0.3086014,0.5948029,0.4628983,1.2246094,0.4628983,1.8907013c0,0.6660004-0.1152954,1.2695007-0.3437958,1.8095093
			c-0.2304993,0.5410004-0.5547028,1.0155945-0.9785004,1.4238892c-0.9375,0.8808136-2.1328049,1.3212128-3.5879059,1.3212128
			C94.3789215,210.7324066,93.720726,210.6289062,93.1113281,210.4208984z M95.4648209,218.8213043
			c1.7618027,0,2.642601-0.6162109,2.642601-1.8476105c0-0.5869904-0.2870941-1.0596008-0.8592987-1.4179993
			c-0.6445999-0.4081879-1.7519989-0.726593-3.3203964-0.9561005l-0.5586014-0.0966949
			c-0.4726028,0.2510071-0.8202972,0.5733032-1.0410004,0.9667969c-0.2226028,0.3936005-0.3320007,0.7676086-0.3281021,1.1231079
			c0.0038986,0.3535004,0.0878983,0.6600952,0.2519989,0.9179993c0.1660004,0.2577972,0.3945007,0.4833984,0.6875,0.6766968
			C93.5918274,218.6103973,94.4336243,218.8213043,95.4648209,218.8213043z M92.8320236,205.5868988
			c-0.0996017,0.2577972-0.1503983,0.5196075-0.1503983,0.7841949c0,0.2647095,0.0567017,0.5195007,0.1679993,0.7627106
			c0.1093979,0.2431946,0.2734985,0.4618988,0.4882965,0.6552887c0.4785004,0.4297028,1.1055069,0.6445007,1.8789062,0.6445007
			c0.5878983,0,1.0956955-0.1972961,1.5253983-0.5907898c0.4512024-0.4297028,0.6776962-0.9473114,0.6776962-1.5527039
			c0-0.6045074-0.205101-1.0937958-0.6132965-1.4658966c-0.4082031-0.3720093-0.9707031-0.558609-1.6855011-0.558609
			C93.9395218,204.2655945,93.175827,204.7061005,92.8320236,205.5868988z"/>
		<path d="M117.6797256,212.7411957c-1.017601,0.5518036-1.9375,0.8272095-2.7617035,0.8272095
			c-0.8222961,0-1.5292969-0.0772095-2.1152954-0.2315063c-0.5879059-0.1533051-1.0858994-0.3807983-1.4941025-0.6815948
			c-0.830101-0.6083984-1.2461014-1.4893036-1.2461014-2.6426086c0-1.031189,0.5098038-1.8905945,1.5253983-2.5780945
			c1.1035004-0.7451019,2.5996017-1.1172028,4.4902039-1.1172028l0.4297028,0.0106964
			c0.0859985,0.0069122,0.1835938,0.0127106,0.2910004,0.0166016c0.1074982,0.003006,0.2031937,0.0118103,0.289093,0.0263977
			c-0.0565948-1.1454926-0.5507965-1.8153992-1.482399-2.0087891c-0.306694-0.0644073-0.6347961-0.0967102-0.982399-0.0967102
			c-0.347702,0-0.6875,0.030304-1.0195999,0.0909119c-0.3339996,0.0614929-0.6581955,0.1415863-0.9725952,0.2421875
			c-0.6953049,0.2216034-1.1934052,0.4765015-1.4942017,0.7626038l-0.0312042-0.0213928l-0.3222961-2.3740997
			c1.267601-0.6660004,2.6523972-0.9990082,4.1562958-0.9990082c2.3358994,0,3.8281021,0.8417969,4.4804001,2.5243988
			c0.2070999,0.5371094,0.3106003,1.1426086,0.3106003,1.815506v3.8885956c0,0.8311005,0.294899,1.3964996,0.880806,1.6972961
			l-1.943306,1.7832031C118.2598267,213.4609985,117.9297256,213.1493988,117.6797256,212.7411957z M117.0996246,208.3047028
			c-0.1932983-0.0361023-0.3945007-0.0536957-0.6015015-0.0536957h-0.4296951c-1.5840073,0-2.5899048,0.3505859-3.0195999,1.0526886
			c-0.1289062,0.2080078-0.193306,0.4258118-0.193306,0.655304c0,0.2295074,0.0410004,0.4315948,0.125,0.6063995
			c0.0820007,0.1757965,0.2187042,0.3213043,0.4121017,0.4356079c0.3730011,0.214798,0.9258041,0.3222961,1.6601028,0.3222961
			c0.7343979,0,1.4199982-0.1757965,2.056694-0.5263977c-0.0058975-0.0791016-0.0097961-0.1611023-0.0097961-0.2471008V208.3047028z
			"/>
		<path d="M129.8066254,212.4297028c-0.9160004,0.7588043-1.9160004,1.1387024-2.9960022,1.1387024
			c-1.160202,0-2.0703964-0.3906097-2.7285995-1.1708984c-0.6307983-0.7588043-0.9452972-1.8008118-0.9452972-3.1260071v-4.2646027
			c0-1.4326935-0.0312042-2.2539978-0.0918045-2.4648895c-0.0605011-0.2119141-0.1054001-0.3457031-0.134697-0.4033051
			c0.3300018,0.0283051,0.6737976,0.0429993,1.0311966,0.0429993h0.892601c0.2363052,0,0.5469055-0.0108032,0.9336014-0.0323029
			v6.2198029c0,1.4754944,0.402298,2.3309937,1.2031021,2.5672913c0.2440948,0.0713043,0.5097961,0.1075134,0.794899,0.1075134
			c0.8457031,0,1.5254059-0.3077087,2.0410004-0.9239044v-7.9384003h2.664093v9.8504944
			c0,0.6298981,0.0293121,1.0888977,0.085907,1.375h-2.75V212.4297028z"/>
		<path d="M141.2578278,203.4170074c-0.0566101,0.2079926-0.085907,0.7304993-0.085907,1.5683899v0.9452972h-2.5878906v7.4765015
			h-2.6328125v-7.4765015h-1.5780945c0.0057983-0.472702,0.0135956-0.8916016,0.0214081-1.256897l0.0214996-1.1493988v-0.1073914
			h1.5351868v-0.6660004c0-1.718811,0.4023132-3.1006012,1.2031097-4.1464996
			c0.8378906-1.0810089,1.9922028-1.6221008,3.4589996-1.6221008c0.6230011,0,1.0350952,0.0429993,1.2362976,0.128891
			l0.0097961,2.6963043l-0.0214996,0.0536957c-0.2714996-0.2723999-0.6172028-0.4082031-1.035202-0.4082031
			c-0.4198914,0-0.7577972,0.0694122-1.0155945,0.2100067c-0.2577972,0.1387024-0.4765015,0.3379059-0.6562042,0.5957031
			c-0.3652954,0.5155945-0.5468903,1.2207031-0.5468903,2.1161957v1.0420074H141.2578278z"/>
		<path d="M146.1992188,210.4208984c-0.2635956,0.3506012-0.3964996,0.6289062-0.3964996,0.8320007
			c0,0.2050934,0.031311,0.3623962,0.0957031,0.472702c0.0644989,0.1112976,0.2051086,0.2167969,0.4199982,0.3173981
			c0.4726105,0.2216949,1.25,0.4170074,2.3300018,0.5848999c1.0821075,0.1690063,1.9297028,0.378006,2.5411072,0.6289978
			c0.6131897,0.2509003,1.1073914,0.5585022,1.4881897,0.9237976c0.7089996,0.6943054,1.0625,1.6797028,1.0625,2.9541016
			s-0.4471893,2.2539062-1.3417969,2.9385071c-0.8963928,0.6835938-2.2245941,1.0253906-3.9862976,1.0253906
			c-1.7754059,0-3.2070007-0.386795-4.2969055-1.1601868c-1.0878906-0.773407-1.6463928-1.8008118-1.6756897-3.0830078
			c-0.0429993-1.4893036,0.5410004-2.5673981,1.7518921-3.2333984c-0.3300934-0.2725067-0.5507965-0.592804-0.6600952-0.960907
			c-0.1114044-0.3691864-0.1679993-0.7901001-0.1679993-1.2626953c0-0.7949982,0.3475952-1.467804,1.0429993-2.0195923
			c-0.8106079-0.7666016-1.2149048-1.7187042-1.2149048-2.8574066c0-1.2743988,0.4589996-2.3417969,1.375-3.2012024
			c0.9667969-0.902298,2.2207031-1.3535004,3.7597961-1.3535004c0.8105011,0,1.5683136,0.1504059,2.2773132,0.4512024
			c0.9316864-0.3936005,1.6152954-0.7393036,2.0527954-1.0361023c0.4355011-0.2978973,0.714798-0.5146942,0.8377991-0.6503906
			l0.0644989,0.0106964c0.0644989,0.1718903,0.1387024,0.4149933,0.2245941,0.7304993l0.1934052,0.7733917
			c0.1717987,0.6377106,0.2754059,1.0742035,0.3125,1.3106079c-0.3164062,0.3437042-0.8710938,0.5868988-1.6660004,0.7303925
			c0.3085022,0.5948029,0.4627991,1.2246094,0.4627991,1.8907013c0,0.6660004-0.1152039,1.2695007-0.3437042,1.8095093
			c-0.2304993,0.5410004-0.5546875,1.0155945-0.9785004,1.4238892c-0.9375,0.8808136-2.1327972,1.3212128-3.5878906,1.3212128
			C147.4668274,210.7324066,146.8086243,210.6289062,146.1992188,210.4208984z M148.5527191,218.8213043
			c1.7618103,0,2.6426086-0.6162109,2.6426086-1.8476105c0-0.5869904-0.2871094-1.0596008-0.8594055-1.4179993
			c-0.6445007-0.4081879-1.7518921-0.726593-3.3202972-0.9561005l-0.5585938-0.0966949
			c-0.4726105,0.2510071-0.8203125,0.5733032-1.0410004,0.9667969c-0.2226105,0.3936005-0.3320007,0.7676086-0.3281097,1.1231079
			c0.0039062,0.3535004,0.0879059,0.6600952,0.2519073,0.9179993c0.1660919,0.2577972,0.3945923,0.4833984,0.6875,0.6766968
			C146.679718,218.6103973,147.5215302,218.8213043,148.5527191,218.8213043z M145.9199219,205.5868988
			c-0.0995941,0.2577972-0.1503906,0.5196075-0.1503906,0.7841949c0,0.2647095,0.0566864,0.5195007,0.1679993,0.7627106
			c0.1093903,0.2431946,0.2733917,0.4618988,0.4882965,0.6552887c0.4785004,0.4297028,1.1054993,0.6445007,1.878891,0.6445007
			c0.5879059,0,1.0957031-0.1972961,1.5254059-0.5907898c0.4512024-0.4297028,0.6777039-0.9473114,0.6777039-1.5527039
			c0-0.6045074-0.2051086-1.0937958-0.6132965-1.4658966c-0.4082031-0.3720093-0.9707031-0.558609-1.6855011-0.558609
			C147.0273285,204.2655945,146.2637177,204.7061005,145.9199219,205.5868988z"/>
		<path d="M155.5234222,207.8858032c0-0.8379059,0.1446075-1.6153107,0.4297028-2.3311005
			c0.2870941-0.7158051,0.6914062-1.342804,1.2149048-1.8798981c1.1171875-1.1386108,2.5780945-1.7080078,4.3827972-1.7080078
			c1.5253906,0,2.75,0.5048981,3.6737976,1.5147095c0.9082031,0.973587,1.3632965,2.1981964,1.3632965,3.6737976
			c0,0.5653992-0.0429993,0.9521027-0.128891,1.1600952c-0.7149048,0.2001953-2.1738129,0.3007965-4.371109,0.3007965h-3.7812958
			c0.1855927,0.7666016,0.6192017,1.3623047,1.2989044,1.7891083c0.6815948,0.4257965,1.5643921,0.6387024,2.6542969,0.6387024
			c1.1385956,0,2.1152039-0.2041016,2.9315948-0.6123047c0.2149048-0.1074982,0.3769989-0.2080078,0.4844055-0.3007965
			c-0.0156097,0.3007965-0.0332031,0.6083984-0.0547028,0.9237976l-0.1172028,1.6757965
			c-0.5448914,0.3721008-1.4257965,0.6298981-2.6425934,0.773407c-0.3592987,0.0429993-0.7031097,0.0644989-1.0312042,0.0644989
			c-1.8202972,0-3.3242035-0.530304-4.5117035-1.5899048C156.1211243,210.9111938,155.5234222,209.5469055,155.5234222,207.8858032z
			 M163.7305298,206.532196c-0.2929993-1.5399933-1.1309052-2.309494-2.5137024-2.309494
			c-1.0879059,0-1.9160004,0.4687042-2.4804993,1.407196c-0.1717987,0.2861023-0.3047028,0.6016083-0.398407,0.9452972
			c0.1719055,0.0068054,0.3827972,0.0147095,0.6347961,0.0214996h0.7949066
			c0.2637024,0.0068054,0.5195007,0.0107117,0.7617035,0.0107117h0.6132965c0.3652039,0,0.7225952-0.0039062,1.0742035-0.0107117
			l0.8808899-0.032196C163.3340302,206.5576019,163.5449219,206.5469055,163.7305298,206.532196z"/>
		<path d="M171.7441254,212.032196c0,0.6298981,0.0292969,1.0888977,0.0859985,1.375h-2.6952972v-11.2254944h2.6092987v0.9559937
			c0.9454041-0.7802887,1.9550934-1.1708984,3.0292969-1.1708984c1.1757965,0,2.1132965,0.3993988,2.8144989,1.1983032
			c0.7031097,0.7978058,1.0527039,1.8486023,1.0527039,3.152298v4.2754059c0,1.2099915,0.0175934,1.9375,0.0547028,2.1806946
			c0.035202,0.243103,0.0839996,0.4013062,0.1445007,0.4725952c0.0605927,0.0713043,0.1132965,0.1358032,0.1562958,0.1934052
			l-0.0214996,0.0429077c-0.5800934-0.0498047-1.0039062-0.0752106-1.2675934-0.0752106h-0.7519073
			c-0.2304993,0-0.5370941,0.0108032-0.9237976,0.0323029v-5.8544922c0-2.0987091-0.6387024-3.1475067-1.9122009-3.1475067
			c-0.9452972,0-1.7362976,0.4873047-2.375,1.4609985V212.032196z"/>
		<path d="M180.9609222,207.8535004c0-0.7881012,0.1347961-1.5420074,0.4042969-2.2606964
			c0.2676086-0.7207031,0.6524048-1.3486023,1.1543121-1.8858032c1.0956879-1.1600952,2.5175934-1.7402039,4.2636871-1.7402039
			c1.7402039,0,3.1231079,0.5478973,4.1464996,1.6436005c0.9824066,1.0458984,1.4726105,2.402298,1.4726105,4.0713043
			c0,1.6688995-0.5057983,3.050705-1.5156097,4.1463928c-1.066391,1.160202-2.4803925,1.7403107-4.2421875,1.7403107
			c-1.8203125,0-3.2441101-0.5694122-4.2754059-1.7080078C181.429718,210.8222961,180.9609222,209.4862976,180.9609222,207.8535004z
			 M183.5723267,207.789093c0,0.4512024,0.0742035,0.8877106,0.2245941,1.3105011
			c0.1504059,0.4229126,0.3652039,0.7842102,0.6445007,1.0850067c0.5957031,0.6513977,1.375,0.9774933,2.3417969,0.9774933
			c0.8964996,0,1.6016083-0.3182983,2.1172028-0.9559937c0.5-0.6161957,0.7519073-1.4179993,0.7519073-2.4062958
			c0-1.0028992-0.2577972-1.8115082-0.773407-2.4277039c-0.5527039-0.6591949-1.3065948-0.9882965-2.2675934-0.9882965
			c-0.9726105,0-1.7362976,0.3506012-2.2871094,1.0526886C183.8223267,206.0811005,183.5723267,206.8652954,183.5723267,207.789093z
			"/>
		<path d="M197.5371246,210.3027954c0,1.6112976,0.0274048,2.6464081,0.0859985,3.1044006h-2.8047028v-11.2254944h2.7187042
			v0.9667969c0.9804993-0.7881012,1.9862976-1.1817017,3.0175934-1.1817017c1.2187042,0,2.1016083,0.5263977,2.6543121,1.5791016
			c0.5507965-0.5653992,1.0097961-0.9384918,1.375-1.1172028c0.6073914-0.3076019,1.218689-0.4618988,1.8320007-0.4618988
			c0.6112976,0,1.1327972,0.1035004,1.5625,0.3115082c0.4296875,0.2079926,0.7831879,0.5009918,1.0625,0.8808899
			c0.566391,0.7666016,0.8495941,1.8193054,0.8495941,3.1582031v4.2754059c0,1.2099915,0.0175934,1.9375,0.0527954,2.1806946
			c0.0371094,0.243103,0.0839081,0.4013062,0.1464081,0.4725952c0.0605927,0.0713043,0.1113892,0.1358032,0.1542969,0.1934052
			l-0.0214081,0.0429077c-0.5722961-0.0498047-0.9941864-0.0752106-1.2675934-0.0752106h-0.8047028
			c-0.2655945,0-0.5917969,0.0108032-0.9785004,0.0323029v-5.8115997c0-1.675705-0.2577972-2.6708984-0.7734985-2.9862976
			c-0.1717987-0.1006012-0.3730011-0.1504059-0.6053925-0.1504059c-0.2344055,0-0.4394989,0.0274048-0.6192017,0.0801086
			c-0.1777039,0.0547028-0.3476105,0.1416016-0.5039062,0.2637024c-0.2655945,0.1932983-0.566391,0.5731964-0.902298,1.1386871
			c0.0057983,0.0576019,0.0097046,0.114212,0.0097046,0.1717987c0,0.0576019,0,1.003006,0,2.8360138
			c0,1.8329926,0.0429993,3.3085938,0.1289978,4.4256897c-0.6074982,0-1.125,0-1.5507965,0
			c-0.4278107,0-0.8339996,0.0108032-1.2207031,0.0323029v-5.8222961c0-1.1670074-0.0684052-1.9268036-0.2089996-2.277298
			c-0.1387024-0.3506012-0.2891083-0.5801086-0.4452972-0.6875c-0.1582031-0.1074982-0.3516083-0.1612091-0.5801086-0.1612091
			c-0.9452972,0-1.7343903,0.4551086-2.3632965,1.3643036V210.3027954z"/>
		<path d="M215.9063263,210.3027954c0,1.6112976,0.027298,2.6464081,0.0858917,3.1044006h-2.8046875v-11.2254944h2.7187958
			v0.9667969c0.9803925-0.7881012,1.9862976-1.1817017,3.0175018-1.1817017c1.2187958,0,2.101593,0.5263977,2.6542969,1.5791016
			c0.5507965-0.5653992,1.0097961-0.9384918,1.375-1.1172028c0.6074982-0.3076019,1.2187958-0.4618988,1.8320923-0.4618988
			c0.6113129,0,1.1328125,0.1035004,1.5625,0.3115082c0.4296112,0.2079926,0.7832031,0.5009918,1.0625,0.8808899
			c0.5664062,0.7666016,0.8496094,1.8193054,0.8496094,3.1582031v4.2754059c0,1.2099915,0.0175018,1.9375,0.0527039,2.1806946
			c0.0370941,0.243103,0.0839996,0.4013062,0.1464996,0.4725952c0.0605011,0.0713043,0.1112976,0.1358032,0.1542969,0.1934052
			l-0.0214996,0.0429077c-0.5722961-0.0498047-0.9941101-0.0752106-1.2676086-0.0752106h-0.8046875
			c-0.2656097,0-0.5918121,0.0108032-0.9785004,0.0323029v-5.8115997c0-1.675705-0.2578125-2.6708984-0.773407-2.9862976
			c-0.1719055-0.1006012-0.3730927-0.1504059-0.6054993-0.1504059c-0.2344055,0-0.4394073,0.0274048-0.6190948,0.0801086
			c-0.1778107,0.0547028-0.347702,0.1416016-0.5039062,0.2637024c-0.2657013,0.1932983-0.5664062,0.5731964-0.9024048,1.1386871
			c0.0059052,0.0576019,0.0098114,0.114212,0.0098114,0.1717987c0,0.0576019,0,1.003006,0,2.8360138
			c0,1.8329926,0.0429993,3.3085938,0.128891,4.4256897c-0.6073914,0-1.125,0-1.5507965,0
			c-0.4277039,0-0.8339996,0.0108032-1.2207031,0.0323029v-5.8222961c0-1.1670074-0.0682983-1.9268036-0.2089996-2.277298
			c-0.1385956-0.3506012-0.2890015-0.5801086-0.4452972-0.6875c-0.1582031-0.1074982-0.3515015-0.1612091-0.5800934-0.1612091
			c-0.9453125,0-1.734314,0.4551086-2.363205,1.3643036V210.3027954z"/>
		<path d="M230.8379211,207.8858032c0-0.8379059,0.1426086-1.6153107,0.4297028-2.3311005
			c0.2850952-0.7158051,0.6914062-1.342804,1.2129059-1.8798981c1.1171875-1.1386108,2.5780945-1.7080078,4.3827972-1.7080078
			c1.5253906,0,2.75,0.5048981,3.6737976,1.5147095c0.910202,0.973587,1.3652039,2.1981964,1.3652039,3.6737976
			c0,0.5653992-0.0429077,0.9521027-0.1289062,1.1600952c-0.7167969,0.2001953-2.1737976,0.3007965-4.3730011,0.3007965h-3.7812958
			c0.1875,0.7666016,0.6192017,1.3623047,1.3007965,1.7891083c0.6797028,0.4257965,1.5644989,0.6387024,2.6524048,0.6387024
			c1.1385956,0,2.1172028-0.2041016,2.9335938-0.6123047c0.214798-0.1074982,0.375-0.2080078,0.4824066-0.3007965
			c-0.0137024,0.3007965-0.0312958,0.6083984-0.0527039,0.9237976l-0.1192017,1.6757965
			c-0.5429993,0.3721008-1.4237976,0.6298981-2.6425934,0.773407c-0.3574066,0.0429993-0.7011108,0.0644989-1.0312042,0.0644989
			c-1.8184052,0-3.3222961-0.530304-4.5117035-1.5899048C231.4356232,210.9111938,230.8379211,209.5469055,230.8379211,207.8858032z
			 M239.0449219,206.532196c-0.2948914-1.5399933-1.1327972-2.309494-2.5135956-2.309494
			c-1.0899048,0-1.9161072,0.4687042-2.4824982,1.407196c-0.1717987,0.2861023-0.3047028,0.6016083-0.3964996,0.9452972
			c0.1718903,0.0068054,0.3828888,0.0147095,0.6328888,0.0214996h0.7949066
			c0.2655945,0.0068054,0.5195007,0.0107117,0.7637024,0.0107117h0.6112976c0.3652039,0,0.7245941-0.0039062,1.0742035-0.0107117
			l0.8808899-0.032196C238.6465302,206.5576019,238.8574219,206.5469055,239.0449219,206.532196z"/>
		<path d="M247.0586243,212.032196c0,0.6298981,0.027298,1.0888977,0.085907,1.375h-2.6972046v-11.2254944h2.6112976v0.9559937
			c0.9452972-0.7802887,1.9550934-1.1708984,3.0292969-1.1708984c1.1737976,0,2.1112976,0.3993988,2.8144073,1.1983032
			c0.7012024,0.7978058,1.0527954,1.8486023,1.0527954,3.152298v4.2754059c0,1.2099915,0.0175934,1.9375,0.0527039,2.1806946
			c0.0370941,0.243103,0.0839996,0.4013062,0.1464996,0.4725952c0.0605011,0.0713043,0.1112976,0.1358032,0.1542969,0.1934052
			l-0.0214996,0.0429077c-0.5800934-0.0498047-1.0019073-0.0752106-1.2675934-0.0752106h-0.7519073
			c-0.2285004,0-0.5370941,0.0108032-0.9237976,0.0323029v-5.8544922c0-2.0987091-0.636795-3.1475067-1.9122009-3.1475067
			c-0.9452972,0-1.7362976,0.4873047-2.3730011,1.4609985V212.032196z"/>
		<path d="M256.554718,207.8858032c0-0.8379059,0.1426086-1.6153107,0.429718-2.3311005
			c0.2850952-0.7158051,0.6913757-1.342804,1.2128906-1.8798981c1.1171875-1.1386108,2.5780945-1.7080078,4.3828125-1.7080078
			c1.5253906,0,2.75,0.5048981,3.6737976,1.5147095c0.9101868,0.973587,1.3651733,2.1981964,1.3651733,3.6737976
			c0,0.5653992-0.0428772,0.9521027-0.1288757,1.1600952c-0.7167969,0.2001953-2.1737976,0.3007965-4.3730164,0.3007965h-3.7812805
			c0.1875,0.7666016,0.6192017,1.3623047,1.3007812,1.7891083c0.679718,0.4257965,1.5645142,0.6387024,2.6524048,0.6387024
			c1.1386108,0,2.1171875-0.2041016,2.9335938-0.6123047c0.2148132-0.1074982,0.375-0.2080078,0.4824219-0.3007965
			c-0.0137024,0.3007965-0.031311,0.6083984-0.0528259,0.9237976l-0.1190796,1.6757965
			c-0.5429993,0.3721008-1.4237976,0.6298981-2.6426086,0.773407c-0.3573914,0.0429993-0.7011108,0.0644989-1.031189,0.0644989
			c-1.8184204,0-3.3223267-0.530304-4.5117188-1.5899048C257.1523132,210.9111938,256.554718,209.5469055,256.554718,207.8858032z
			 M264.7617188,206.532196c-0.2948914-1.5399933-1.132782-2.309494-2.5135803-2.309494
			c-1.0899048,0-1.9161072,0.4687042-2.4825134,1.407196c-0.171814,0.2861023-0.3046875,0.6016083-0.3965149,0.9452972
			c0.1719055,0.0068054,0.3829041,0.0147095,0.6329041,0.0214996h0.7949219
			c0.2655945,0.0068054,0.5195007,0.0107117,0.7637024,0.0107117h0.6112976c0.3651733,0,0.7245789-0.0039062,1.0741882-0.0107117
			l0.8808899-0.032196C264.3633118,206.5576019,264.5742188,206.5469055,264.7617188,206.532196z"/>
		<path d="M277.3086243,199.0449066c0.9941101-0.1289062,2.0155945-0.1933136,3.0604858-0.1933136
			c1.9493103,0,3.429718,0.4560089,4.4434204,1.3701019c1.0116882,0.9121094,1.5195007,2.2783051,1.5195007,4.097702
			c0,1.6259003-0.554718,2.9111023-1.6660156,3.8563995c-1.0370789,0.8877106-2.3729858,1.3320007-4.0057983,1.3320007
			c-0.1875,0-0.390686-0.0106964-0.6132812-0.032196v3.9315948h-2.7383118V199.0449066z M280.6914368,201.4403992
			c-0.2148132,0-0.429718,0.006897-0.6445007,0.0214996v5.6504059c0.2303772,0.0282898,0.5096741,0.0429993,0.8378906,0.0429993
			c0.3299866,0,0.6737976-0.0702972,1.031189-0.2089996c0.3594055-0.1406097,0.6602173-0.3350067,0.9024048-0.585907
			c0.5097046-0.5224915,0.7636108-1.2099915,0.7636108-2.0625
			C283.5820312,202.3925934,282.6191101,201.4403992,280.6914368,201.4403992z"/>
		<path d="M287.7285156,207.8858032c0-0.8379059,0.1426086-1.6153107,0.429718-2.3311005
			c0.2851868-0.7158051,0.6913757-1.342804,1.2128906-1.8798981c1.1171875-1.1386108,2.5780945-1.7080078,4.3828125-1.7080078
			c1.5253906,0,2.75,0.5048981,3.6737976,1.5147095c0.9101868,0.973587,1.3652954,2.1981964,1.3652954,3.6737976
			c0,0.5653992-0.0429993,0.9521027-0.1289062,1.1600952c-0.7167969,0.2001953-2.1738892,0.3007965-4.3731079,0.3007965h-3.781189
			c0.1875,0.7666016,0.6191101,1.3623047,1.3008118,1.7891083c0.6795959,0.4257965,1.5643921,0.6387024,2.6522827,0.6387024
			c1.1387024,0,2.117218-0.2041016,2.9335938-0.6123047c0.2148132-0.1074982,0.375-0.2080078,0.4824219-0.3007965
			c-0.0137024,0.3007965-0.0312195,0.6083984-0.0527039,0.9237976l-0.1192017,1.6757965
			c-0.5429077,0.3721008-1.4237976,0.6298981-2.6425171,0.773407c-0.3574829,0.0429993-0.7012024,0.0644989-1.0312805,0.0644989
			c-1.8184204,0-3.3222961-0.530304-4.5117188-1.5899048C288.3262329,210.9111938,287.7285156,209.5469055,287.7285156,207.8858032z
			 M295.9356384,206.532196c-0.2950134-1.5399933-1.1329041-2.309494-2.5137024-2.309494
			c-1.0899048,0-1.9160156,0.4687042-2.4824219,1.407196c-0.171875,0.2861023-0.3046875,0.6016083-0.3964844,0.9452972
			c0.1717834,0.0068054,0.382782,0.0147095,0.632782,0.0214996h0.7949219
			c0.2655945,0.0068054,0.5195007,0.0107117,0.7637024,0.0107117h0.6112976c0.3652039,0,0.7245789-0.0039062,1.0741882-0.0107117
			l0.8808899-0.032196C295.5371094,206.5576019,295.7481384,206.5469055,295.9356384,206.532196z"/>
		<path d="M303.6582336,212.2041016c0,0.6161957,0.0155945,1.0166016,0.0429993,1.2030945h-2.6739197v-11.2254944h2.6309204
			v0.8271027c0.6094055-0.6943054,1.2480774-1.0420074,1.9179993-1.0420074c0.6698914,0,1.1972046,0.0820007,1.5839844,0.2471008
			l-0.1933899,2.8896027l-0.0429993,0.0323029c-0.25-0.444397-0.7695007-0.6661072-1.5566101-0.6661072
			c-0.3007812,0-0.6073914,0.1016083-0.9179993,0.3067017c-0.3125,0.2031097-0.5760803,0.4736023-0.7909851,0.8105011V212.2041016z"
			/>
		<path d="M312.2520142,213.5684052c-2.0195923,0-3.5410767-0.3692017-4.5644836-1.1065063
			c0.0137024-0.214798,0.0351868-0.4579926,0.0644836-0.7303925l0.0957031-0.7735138
			c0.0585938-0.5087891,0.0937195-0.8251953,0.1074219-0.9510956c0.0155945-0.125,0.0253906-0.1933899,0.0331726-0.2032013
			c0.0057983-0.0116882,0.0644226,0.0458984,0.1719055,0.1719055c0.1074219,0.125,0.3105164,0.277298,0.6112976,0.4561005
			c0.3008118,0.1786957,0.648407,0.3368988,1.0429993,0.4725952c0.8515015,0.2940063,1.7402039,0.4403992,2.6640015,0.4403992
			c1.2383118,0,1.8574219-0.4120941,1.8574219-1.2352905c0-0.2647095-0.1171265-0.4618988-0.3535156-0.5908051
			c-0.4237976-0.2149048-1.0448914-0.378006-1.8633118-0.4882965c-0.820282-0.1112976-1.4920959-0.2743988-2.0155945-0.4893036
			c-0.5214844-0.214798-0.9491882-0.4725952-1.2772827-0.773407c-0.6094055-0.5653992-0.9141235-1.3065948-0.9141235-2.223587
			c0-1.1172028,0.429718-1.9942017,1.2891235-2.6319122c0.8534851-0.6298981,2.031189-0.9452972,3.5350952-0.9452972
			c1.4882812,0,2.7597961,0.4228973,3.8125,1.2676086c-0.0487976,0.1864929-0.1035156,0.3651886-0.1600952,0.5370941
			c-0.1660156,0.472702-0.2871094,0.8125-0.3652954,1.0205078l-0.2480164,0.6337891
			c-0.0137024,0.0576019-0.0253906,0.085907-0.031311,0.085907c-0.0155945,0-0.0721741-0.0752106-0.1717834-0.2255096
			c-0.4512024-0.5224915-1.1542969-0.8662872-2.1054993-1.0312958c-0.2948914-0.0576019-0.5957031-0.0858917-0.9023132-0.0858917
			c-1.3046875,0-1.9550781,0.3934937-1.9550781,1.1815948c0,0.2724915,0.1346741,0.4794922,0.4082031,0.6230927
			c0.507782,0.2723999,1.2050781,0.4726105,2.0897827,0.6015015c0.8828125,0.1289062,1.5546875,0.3027039,2.0137024,0.5214996
			c0.4570007,0.217804,0.8262024,0.4813995,1.1054993,0.7891083c0.5155945,0.5585938,0.773407,1.2997894,0.773407,2.2236023
			c0,1.0097961-0.4042969,1.8300934-1.2129211,2.4599915C314.9414368,213.2353973,313.7637329,213.5684052,312.2520142,213.5684052z
			"/>
		<path d="M318.6758118,207.8535004c0-0.7881012,0.1348267-1.5420074,0.4043274-2.2606964
			c0.2675781-0.7207031,0.6522827-1.3486023,1.1542969-1.8858032c1.0957031-1.1600952,2.5175781-1.7402039,4.2637024-1.7402039
			c1.7401733,0,3.1229858,0.5478973,4.1463928,1.6436005c0.9824829,1.0458984,1.4726868,2.402298,1.4726868,4.0713043
			c0,1.6688995-0.5058899,3.050705-1.5155945,4.1463928c-1.0664062,1.160202-2.4804993,1.7403107-4.2421875,1.7403107
			c-1.8203125,0-3.2442017-0.5694122-4.2754211-1.7080078C319.1445312,210.8222961,318.6758118,209.4862976,318.6758118,207.8535004
			z M321.2871094,207.789093c0,0.4512024,0.0742188,0.8877106,0.2246094,1.3105011
			c0.1503906,0.4229126,0.3652954,0.7842102,0.6445923,1.0850067c0.5957031,0.6513977,1.375,0.9774933,2.3418274,0.9774933
			c0.8963928,0,1.6014709-0.3182983,2.1170959-0.9559937c0.5-0.6161957,0.7519836-1.4179993,0.7519836-2.4062958
			c0-1.0028992-0.257782-1.8115082-0.773407-2.4277039c-0.5527954-0.6591949-1.3067017-0.9882965-2.2675781-0.9882965
			c-0.9727173,0-1.7364197,0.3506012-2.2871094,1.0526886C321.5371094,206.0811005,321.2871094,206.8652954,321.2871094,207.789093z
			"/>
		<path d="M335.1758118,212.032196c0,0.6298981,0.0293274,1.0888977,0.085907,1.375h-2.695282v-11.2254944h2.609375v0.9559937
			c0.9453125-0.7802887,1.9551086-1.1708984,3.0293274-1.1708984c1.1757812,0,2.1132812,0.3993988,2.8143921,1.1983032
			c0.703186,0.7978058,1.0527954,1.8486023,1.0527954,3.152298v4.2754059c0,1.2099915,0.0174866,1.9375,0.0546875,2.1806946
			c0.0350952,0.243103,0.0839233,0.4013062,0.1445007,0.4725952c0.0605164,0.0713043,0.1133118,0.1358032,0.1562195,0.1934052
			l-0.0214233,0.0429077c-0.5800781-0.0498047-1.0039978-0.0752106-1.2675781-0.0752106h-0.7520142
			c-0.2304077,0-0.5371094,0.0108032-0.9237976,0.0323029v-5.8544922c0-2.0987091-0.6387024-3.1475067-1.9121094-3.1475067
			c-0.945282,0-1.7362976,0.4873047-2.375,1.4609985V212.032196z"/>
		<path d="M344.671936,207.8858032c0-0.8379059,0.1445007-1.6153107,0.4296875-2.3311005
			c0.2871094-0.7158051,0.6914062-1.342804,1.2148132-1.8798981c1.1171875-1.1386108,2.5780945-1.7080078,4.382782-1.7080078
			c1.5253906,0,2.75,0.5048981,3.6739197,1.5147095c0.9081726,0.973587,1.3631897,2.1981964,1.3631897,3.6737976
			c0,0.5653992-0.0429077,0.9521027-0.1289062,1.1600952c-0.7147827,0.2001953-2.1737976,0.3007965-4.3710938,0.3007965h-3.781189
			c0.1854858,0.7666016,0.6190796,1.3623047,1.2987976,1.7891083c0.6817017,0.4257965,1.5644836,0.6387024,2.6542969,0.6387024
			c1.1387024,0,2.1152039-0.2041016,2.9315796-0.6123047c0.2149048-0.1074982,0.3770142-0.2080078,0.4844055-0.3007965
			c-0.0155945,0.3007965-0.0332031,0.6083984-0.0546875,0.9237976l-0.117218,1.6757965
			c-0.5448914,0.3721008-1.4256897,0.6298981-2.6424866,0.773407c-0.3594055,0.0429993-0.7032166,0.0644989-1.031311,0.0644989
			c-1.820282,0-3.3241882-0.530304-4.5116882-1.5899048C345.2695312,210.9111938,344.671936,209.5469055,344.671936,207.8858032z
			 M352.8789368,206.532196c-0.2929993-1.5399933-1.1307983-2.309494-2.5137024-2.309494
			c-1.0879211,0-1.9160156,0.4687042-2.4804077,1.407196c-0.1719055,0.2861023-0.3046875,0.6016083-0.3984985,0.9452972
			c0.1719055,0.0068054,0.382782,0.0147095,0.6347961,0.0214996h0.7948914
			c0.2637024,0.0068054,0.5196228,0.0107117,0.7617188,0.0107117h0.6132812c0.3652954,0,0.7227173-0.0039062,1.0742188-0.0107117
			l0.8808899-0.032196C352.4824219,206.5576019,352.6934204,206.5469055,352.8789368,206.532196z"/>
		<path d="M360.8926392,212.032196c0,0.6298981,0.0292969,1.0888977,0.0858765,1.375h-2.695282v-11.2254944h2.6094055v0.9559937
			c0.945282-0.7802887,1.9550781-1.1708984,3.0292969-1.1708984c1.1757812,0,2.1132812,0.3993988,2.8143921,1.1983032
			c0.703186,0.7978058,1.0527954,1.8486023,1.0527954,3.152298v4.2754059c0,1.2099915,0.0174866,1.9375,0.0546875,2.1806946
			c0.0351257,0.243103,0.0839233,0.4013062,0.1445007,0.4725952c0.0605164,0.0713043,0.1133118,0.1358032,0.1562195,0.1934052
			l-0.0213928,0.0429077c-0.5801086-0.0498047-1.0040283-0.0752106-1.2676086-0.0752106h-0.7520142
			c-0.2303772,0-0.5370789,0.0108032-0.9237976,0.0323029v-5.8544922c0-2.0987091-0.6387024-3.1475067-1.9120789-3.1475067
			c-0.9453125,0-1.7363281,0.4873047-2.375,1.4609985V212.032196z"/>
	</g>
	<g>
		<polygon points="497.1699219,33.7939987 497.1699219,16.2821999 481.8008118,16.2821999 481.8008118,33.7939987 
			481.8008118,49.1612015 497.1699219,49.1612015 514.6816406,49.1612015 514.6816406,33.7939987 		"/>
		<polygon points="429.031311,78.1064987 411.5195312,78.1064987 411.5195312,93.4746017 429.031311,93.4746017 
			429.031311,110.9862976 444.4004211,110.9862976 444.4004211,93.4746017 444.4004211,78.1064987 		"/>
	</g>
</g>
</svg>
